<?xml version="1.0" standalone="no"?>
<!DOCTYPE svg PUBLIC "-//W3C//DTD SVG 20010904//EN"
 "http://www.w3.org/TR/2001/REC-SVG-20010904/DTD/svg10.dtd">
<svg version="1.0" xmlns="http://www.w3.org/2000/svg"
 width="300.000000pt" height="300.000000pt" viewBox="0 0 300.000000 300.000000"
 preserveAspectRatio="xMidYMid meet">
<metadata>
Created by potrace 1.10, written by Peter Selinger 2001-2011
</metadata>
<g transform="translate(0.000000,300.000000) scale(0.100000,-0.100000)"
fill="#000000" stroke="none">
<path d="M1330 2732 c-8 -3 -27 -13 -41 -23 -15 -10 -50 -24 -79 -30 -73 -16
-183 -62 -247 -105 -211 -140 -333 -416 -333 -751 0 -80 -4 -120 -14 -136 -41
-66 -27 -163 33 -218 60 -56 83 -138 68 -248 -22 -168 26 -338 118 -419 60
-52 100 -71 173 -78 l60 -7 12 -61 c16 -88 70 -191 138 -264 72 -78 115 -92
280 -92 163 0 203 14 281 97 35 36 68 78 73 92 6 14 19 44 29 66 10 22 21 63
24 90 11 86 11 85 69 85 36 0 68 8 103 26 136 67 206 231 188 434 -5 47 -8
103 -8 125 1 51 40 155 58 155 8 0 26 17 40 37 31 47 35 130 6 183 -14 27 -19
67 -24 175 -13 290 -101 508 -264 654 -71 64 -231 145 -323 163 -36 7 -80 23
-98 35 -30 20 -45 22 -170 21 -75 0 -144 -3 -152 -6z m318 -29 c15 -11 59 -27
97 -37 280 -70 462 -250 539 -536 26 -97 46 -253 46 -364 1 -38 6 -68 15 -80
18 -24 20 -144 2 -167 -7 -8 -24 -23 -38 -33 -18 -11 -33 -37 -47 -80 -19 -58
-21 -79 -15 -213 5 -133 3 -155 -16 -219 -41 -137 -132 -218 -258 -230 l-70
-7 -12 -80 c-6 -44 -20 -94 -31 -112 -11 -18 -20 -39 -20 -47 0 -8 -30 -46
-67 -85 -62 -66 -73 -73 -131 -87 -82 -21 -213 -20 -294 0 -53 14 -70 24 -105
63 -24 25 -51 55 -61 66 -11 11 -23 31 -27 45 -4 14 -16 38 -27 53 -11 16 -25
61 -32 105 l-12 77 -69 6 c-81 6 -120 24 -175 79 -87 87 -116 187 -107 377 7
126 6 136 -19 203 -15 38 -32 70 -38 70 -7 0 -23 11 -36 25 -31 33 -40 128
-16 176 10 20 16 58 16 103 2 403 134 680 394 825 47 27 180 71 212 71 12 0
35 11 51 24 34 29 52 31 206 30 101 -1 123 -5 145 -21z"/>
<path d="M1352 2630 c-10 -11 -41 -24 -68 -29 -142 -27 -245 -82 -349 -186
-150 -149 -215 -339 -215 -630 0 -119 -2 -134 -20 -150 -36 -33 -24 -71 32
-100 22 -11 58 -92 78 -175 10 -43 10 -69 0 -135 -27 -171 24 -314 138 -386
41 -26 55 -29 124 -29 l77 0 5 -32 c21 -127 28 -156 46 -180 11 -15 20 -35 20
-45 0 -10 5 -25 10 -33 8 -12 10 -9 10 13 0 15 5 27 10 27 6 0 10 -17 10 -38
0 -36 14 -62 32 -62 4 0 8 16 8 35 0 19 5 35 10 35 6 0 10 -24 10 -53 0 -55
12 -77 41 -77 14 0 19 10 21 52 2 31 8 53 16 56 10 3 12 -9 6 -56 -6 -57 -5
-60 18 -65 39 -10 68 2 63 27 -18 91 -17 95 12 91 18 -2 27 -8 24 -16 -2 -8
-6 -32 -8 -55 -5 -37 -3 -42 18 -47 13 -4 34 -4 47 0 22 5 24 10 19 47 -3 23
-9 50 -13 60 -5 14 -3 17 12 14 15 -2 20 -13 22 -56 3 -55 12 -62 45 -37 15
11 18 24 15 66 -2 35 1 53 10 56 8 3 12 -8 12 -36 0 -38 1 -40 20 -29 16 10
18 20 14 49 -4 22 -2 39 5 43 7 5 11 -4 11 -24 0 -18 4 -29 10 -25 5 3 10 17
10 31 0 14 9 38 21 53 15 20 24 56 33 122 l11 94 90 5 c71 4 96 10 120 27 48
34 72 64 101 128 24 50 28 74 28 145 0 47 -4 117 -8 155 -8 64 -6 78 24 166
28 85 35 98 63 110 40 18 49 65 17 94 -18 16 -20 30 -20 131 0 268 -63 468
-197 623 -85 99 -243 181 -393 206 -26 4 -50 15 -58 26 -15 22 -71 26 -90 7
-18 -18 -14 -63 6 -81 26 -24 57 -21 80 7 l19 25 74 -15 c233 -46 424 -227
494 -467 13 -44 15 -77 10 -130 -15 -174 -60 -353 -119 -482 l-33 -71 -39 4
c-28 3 -61 -6 -120 -31 -64 -28 -91 -34 -121 -30 -45 6 -73 -13 -74 -50 0 -15
-22 -39 -69 -75 -65 -50 -72 -52 -130 -52 -57 0 -64 3 -129 52 -50 36 -71 59
-75 80 -7 35 -46 56 -79 41 -18 -8 -39 -3 -111 28 -72 31 -96 38 -127 33 l-39
-7 -31 69 c-72 160 -129 395 -129 530 0 60 26 147 70 234 83 165 240 282 428
321 59 12 63 12 86 -10 32 -30 75 -25 95 10 13 24 13 29 -2 53 -21 32 -68 35
-95 6z m73 -35 c0 -38 -37 -48 -55 -15 -14 27 4 52 34 48 16 -2 21 -10 21 -33z
m162 19 c8 -22 -10 -49 -32 -49 -10 0 -22 7 -28 16 -15 24 -1 49 28 49 15 0
28 -7 32 -16z m643 -833 c0 -109 -1 -114 -25 -133 -27 -21 -32 -47 -15 -79 8
-15 4 -41 -20 -115 -16 -52 -31 -113 -32 -134 -2 -63 -23 -50 -57 37 l-20 52
33 73 c46 100 84 224 104 340 9 55 20 92 24 85 4 -7 8 -63 8 -126z m-1453 4
c18 -95 59 -217 103 -314 30 -64 31 -72 20 -108 -14 -44 -37 -83 -49 -83 -4 0
-11 24 -14 53 -3 29 -19 88 -35 131 -28 71 -29 81 -16 101 17 26 10 53 -19 76
-18 14 -21 31 -25 127 -2 61 -1 119 3 129 7 16 9 15 12 -7 2 -14 11 -61 20
-105z m1483 -160 c18 -21 3 -55 -25 -55 -15 0 -26 7 -30 20 -7 23 10 50 30 50
7 0 18 -7 25 -15z m-1502 -4 c8 -4 12 -19 10 -32 -4 -29 -45 -34 -61 -7 -19
30 19 60 51 39z m1261 -220 c17 -5 29 -22 46 -66 25 -66 25 -106 -1 -234 -7
-40 -14 -77 -14 -82 0 -5 20 -6 45 -2 25 3 45 3 45 -1 0 -11 -38 -79 -57 -103
-10 -11 -35 -32 -56 -46 l-37 -25 -60 24 c-38 15 -80 24 -114 24 -44 0 -55 3
-59 19 -4 17 3 19 85 23 86 4 90 5 124 39 25 25 40 54 55 107 l20 72 -28 37
c-15 21 -28 40 -30 42 -1 2 -71 -4 -154 -14 l-151 -18 -59 -44 c-33 -23 -61
-43 -64 -43 -3 0 -5 11 -5 24 0 19 18 39 77 85 50 39 81 57 87 51 19 -19 65
-11 82 15 8 13 13 29 9 35 -4 6 27 26 77 50 86 40 97 43 137 31z m-926 -35
c57 -26 76 -40 79 -57 2 -12 15 -31 29 -41 22 -16 29 -17 52 -7 24 11 32 8
102 -45 58 -44 75 -62 75 -81 0 -14 -2 -25 -5 -25 -3 0 -31 19 -62 41 -53 40
-61 42 -167 55 -61 7 -130 15 -153 18 -41 5 -43 4 -72 -38 l-30 -43 20 -69
c15 -49 32 -80 57 -106 l36 -38 89 0 c86 0 88 -1 85 -22 -3 -21 -10 -24 -73
-29 -38 -3 -91 -14 -117 -23 l-48 -18 -42 31 c-43 32 -98 103 -98 128 0 9 14
13 44 13 l44 0 -14 53 c-25 89 -34 206 -19 246 34 93 32 91 74 91 23 0 69 -14
114 -34z m161 -32 c22 -21 3 -56 -27 -52 -37 5 -33 67 5 68 4 0 14 -7 22 -16z
m521 -19 c0 -25 -4 -30 -24 -30 -32 0 -49 28 -31 50 7 9 23 15 34 13 16 -2 21
-10 21 -33z m373 -179 l-3 -91 -32 -3 c-38 -4 -37 -6 -18 73 8 33 15 80 15
104 0 44 0 44 20 26 18 -17 20 -29 18 -109z m-1253 -62 l7 -42 -33 7 -34 7 -3
83 c-2 69 0 87 15 103 17 19 18 18 29 -49 6 -37 15 -87 19 -109z m270 94 c102
-10 114 -14 168 -50 31 -21 57 -43 57 -48 0 -5 -34 -29 -76 -54 -73 -45 -78
-46 -151 -45 -70 1 -79 4 -110 33 -44 40 -67 119 -45 154 17 26 14 26 157 10z
m808 -9 c21 -30 -2 -112 -39 -142 -36 -29 -57 -35 -127 -36 -48 -1 -70 5 -137
39 -44 22 -80 44 -80 49 0 5 24 26 53 47 47 34 62 39 147 50 148 18 167 17
183 -7z m-443 -29 c0 -40 0 -40 -40 -40 -40 0 -40 0 -40 40 0 40 0 40 40 40
40 0 40 0 40 -40z m10 -74 c0 -8 42 -37 94 -66 111 -61 128 -89 79 -127 -15
-13 -39 -23 -52 -23 -26 0 -111 49 -111 64 0 20 -35 46 -62 46 -21 0 -33 -8
-47 -31 -25 -40 -83 -79 -118 -79 -43 1 -75 30 -71 65 3 25 16 37 92 81 49 29
93 60 98 68 12 21 98 23 98 2z m-21 -140 c23 -28 -17 -68 -45 -45 -15 12 -19
41 -7 52 11 12 40 8 52 -7z m-25 -76 c11 0 27 7 37 16 16 14 20 13 53 -8 54
-35 50 -66 -24 -155 -33 -40 -64 -73 -68 -72 -17 1 -115 134 -122 165 -8 33
-6 36 28 58 32 21 39 22 57 10 11 -8 28 -14 39 -14z m-233 -1 c41 -29 36 -51
-20 -98 l-49 -41 -12 71 -12 71 -49 -4 c-27 -3 -49 -2 -49 3 0 11 28 17 98 18
50 1 70 -4 93 -20z m639 11 c11 -7 1 -10 -36 -10 l-51 0 -7 -70 -7 -71 -50 42
c-85 71 -59 118 66 118 39 1 77 -4 85 -9z m-560 -60 c0 -23 17 -51 72 -115 39
-47 77 -85 83 -85 7 0 42 37 78 82 53 65 67 90 67 116 0 27 4 33 18 30 10 -2
16 -11 14 -23 -1 -14 16 -35 58 -69 38 -32 60 -57 60 -70 0 -15 -24 -37 -78
-74 l-77 -52 -144 0 c-141 0 -144 0 -180 28 -20 15 -53 39 -73 52 -52 34 -49
56 17 113 38 34 55 56 55 73 0 15 6 24 15 24 10 0 15 -10 15 -30z m112 -330
c3 -18 -1 -35 -9 -42 -11 -9 -13 -4 -11 30 3 49 14 55 20 12z m117 -27 c1 -7
-5 -13 -13 -13 -8 0 -13 8 -11 18 2 9 4 24 5 32 2 17 18 -15 19 -37z"/>
</g>
</svg>
