<?xml version="1.0" standalone="no"?>
<!DOCTYPE svg PUBLIC "-//W3C//DTD SVG 20010904//EN"
 "http://www.w3.org/TR/2001/REC-SVG-20010904/DTD/svg10.dtd">
<svg version="1.0" xmlns="http://www.w3.org/2000/svg"
 width="1423.000000pt" height="1936.000000pt" viewBox="0 0 1423.000000 1936.000000"
 preserveAspectRatio="xMidYMid meet">
<metadata>
Created by potrace 1.16, written by Peter Selinger 2001-2019
</metadata>
<g transform="translate(0.000000,1936.000000) scale(0.100000,-0.100000)"
fill="#000000" stroke="none">
<path d="M0 9680 l0 -9680 2083 0 c1607 0 2086 3 2095 12 9 9 12 9 12 0 0 -9
429 -12 1900 -12 1422 0 1900 3 1900 11 0 19 69 118 90 129 11 6 20 17 20 24
0 17 166 266 188 282 8 6 13 18 9 27 -7 19 30 70 45 61 15 -9 1 -65 -21 -85
-11 -11 -21 -39 -25 -73 -4 -31 -12 -58 -17 -61 -5 -4 -9 -16 -9 -28 0 -13 -7
-32 -15 -44 -9 -12 -22 -41 -31 -65 -8 -23 -21 -49 -28 -58 -8 -8 -17 -39 -21
-67 l-7 -53 3031 0 3031 0 0 5050 c0 2778 -2 5050 -5 5050 -9 0 -241 -148
-340 -217 -49 -34 -117 -79 -150 -99 -33 -21 -84 -58 -114 -83 -29 -25 -68
-57 -85 -71 -119 -92 -376 -335 -430 -406 -24 -33 -58 -67 -74 -76 -16 -10
-40 -37 -52 -60 -27 -53 -98 -148 -109 -148 -5 0 -12 -16 -15 -36 -4 -19 -14
-38 -22 -41 -8 -3 -35 -37 -61 -77 -25 -39 -84 -122 -131 -185 -94 -128 -90
-123 -130 -171 -15 -19 -39 -51 -52 -70 -33 -49 -82 -100 -96 -100 -17 0 -23
22 -12 43 17 33 2 47 -51 47 -31 0 -55 6 -65 15 -8 8 -17 15 -20 15 -7 0 -162
75 -186 89 -8 5 -62 33 -120 61 -58 28 -114 61 -125 74 -28 31 -70 56 -95 56
-19 0 -21 -4 -15 -31 7 -31 6 -32 -21 -25 -16 4 -42 20 -57 37 -30 31 -43 36
-49 17 -9 -25 -29 4 -23 33 8 34 7 34 -31 14 -16 -8 -37 -15 -47 -15 -10 0
-15 -5 -12 -10 4 -6 2 -17 -5 -25 -16 -19 6 -52 44 -65 16 -5 35 -19 43 -30 8
-11 22 -20 31 -20 9 0 28 -12 41 -26 17 -17 32 -24 47 -21 29 5 77 -39 52 -48
-8 -3 -27 -1 -42 4 -29 12 -35 4 -51 -67 -4 -18 -31 -63 -61 -100 -55 -68 -63
-96 -42 -135 7 -12 13 -27 14 -34 1 -7 9 -27 18 -44 20 -41 20 -41 -6 -37 -20
3 -23 -2 -26 -37 -4 -44 16 -153 29 -161 5 -3 9 -10 9 -16 0 -7 -4 -7 -13 0
-7 6 -26 10 -42 9 -25 -2 -30 2 -35 25 -3 15 -13 37 -22 48 -10 11 -13 20 -8
20 20 0 9 31 -15 42 -31 14 -40 6 -25 -21 9 -17 8 -21 -5 -21 -17 0 -17 3 -1
-75 11 -56 15 -62 53 -81 23 -11 47 -25 55 -31 7 -5 31 -15 53 -20 22 -6 48
-14 58 -18 13 -6 17 -2 17 15 0 20 2 21 16 9 21 -17 231 -39 309 -32 49 4 63
2 75 -12 11 -13 11 -20 2 -33 -7 -10 -17 -29 -23 -45 -6 -15 -38 -82 -70 -148
-32 -66 -59 -121 -59 -124 0 -2 -18 -43 -41 -91 -22 -49 -41 -97 -41 -109 -3
-67 9 -80 43 -49 24 22 87 10 68 -12 -8 -10 -22 -13 -41 -9 -48 11 -89 -55
-53 -85 21 -17 19 -57 -4 -69 -16 -9 -19 -21 -18 -87 2 -72 3 -75 24 -71 19 3
25 -2 33 -31 5 -20 8 -36 7 -37 -1 -1 -15 -11 -31 -23 -16 -12 -41 -22 -57
-22 -32 0 -46 -15 -30 -34 9 -10 7 -15 -9 -19 -21 -5 -28 -44 -12 -62 10 -12
32 -87 37 -126 2 -16 -2 -33 -11 -40 -9 -7 -25 -31 -36 -53 -17 -33 -18 -43
-8 -59 10 -17 9 -22 -4 -29 -10 -6 -16 -22 -16 -44 0 -27 -5 -37 -20 -41 -10
-3 -28 -22 -39 -43 -16 -31 -17 -41 -7 -61 9 -18 20 -24 44 -23 30 2 32 0 32
-30 0 -30 -15 -56 -32 -56 -4 0 -8 6 -8 13 0 21 -37 50 -55 44 -25 -10 -17
-36 19 -68 l35 -30 -21 -35 c-22 -37 -22 -38 0 -214 7 -54 7 -54 68 -90 151
-88 201 -120 228 -149 37 -39 16 -40 -33 -3 -20 16 -61 44 -91 64 -127 81
-170 100 -170 75 0 -22 -49 -104 -65 -111 -19 -7 -20 -36 -2 -36 7 0 26 -14
42 -30 16 -17 25 -30 20 -30 -23 0 -75 26 -75 37 0 19 -24 16 -42 -4 -24 -28
-27 -47 -9 -66 8 -10 16 -33 17 -50 0 -18 9 -49 18 -69 10 -21 16 -45 12 -53
-3 -8 2 -47 10 -85 l16 -71 47 7 c53 8 48 -6 -7 -21 -24 -7 -38 -18 -41 -30
-2 -11 -14 -34 -28 -52 -28 -37 -26 -45 17 -63 21 -9 30 -19 30 -35 0 -12 7
-28 15 -35 22 -18 18 -30 -8 -30 -25 0 -72 29 -48 30 11 0 11 3 1 15 -7 8 -18
15 -25 15 -7 0 -34 26 -61 57 -26 32 -39 51 -29 42 11 -9 30 -20 42 -23 21 -7
22 -5 18 41 -3 27 -10 64 -15 83 -6 19 -10 54 -10 77 0 23 -4 45 -10 48 -5 3
-10 19 -10 36 0 16 -4 29 -8 29 -15 0 -54 -48 -48 -58 3 -6 1 -33 -5 -62 -8
-37 -8 -54 0 -64 6 -7 9 -20 5 -29 -3 -8 -1 -18 5 -22 15 -9 14 -35 -2 -35 -7
0 -31 16 -53 35 -21 19 -45 35 -51 35 -17 0 -26 -43 -20 -96 3 -35 2 -42 -8
-34 -17 14 -73 1 -101 -25 -13 -12 -45 -29 -71 -37 -35 -11 -49 -21 -51 -37
-4 -26 -11 -26 -54 -3 -52 28 -75 22 -98 -23 -27 -53 -25 -69 10 -99 27 -22
30 -30 24 -61 -3 -19 -10 -35 -15 -35 -12 0 -24 23 -21 42 4 24 -16 58 -33 58
-22 0 -18 -44 5 -65 12 -10 19 -24 16 -31 -5 -14 27 -47 37 -37 4 3 7 -3 7
-15 0 -11 3 -28 6 -37 5 -11 0 -18 -14 -22 -11 -2 -22 -13 -25 -24 -3 -10 -13
-19 -22 -19 -13 0 -15 6 -10 29 4 18 1 34 -7 42 -7 8 -21 26 -31 42 -10 15
-26 27 -37 27 -11 0 -34 15 -50 33 -22 24 -29 28 -30 15 0 -10 16 -33 35 -52
39 -40 45 -74 16 -100 -23 -21 -41 -14 -34 13 8 30 -11 54 -46 57 -39 5 -42
-18 -5 -34 21 -10 25 -18 22 -44 -2 -26 -9 -33 -33 -40 -23 -6 -33 -4 -42 8
-20 27 -53 1 -53 -42 0 -21 4 -33 10 -29 6 3 10 12 10 20 0 11 6 12 29 4 44
-15 43 -45 -1 -102 -38 -49 -37 -47 -40 -178 -1 -24 -3 -25 -35 -15 -18 6 -29
12 -23 14 5 2 10 8 10 13 0 6 -4 8 -9 4 -5 -3 -12 4 -16 15 -4 12 -15 20 -30
20 -24 0 -23 3 -43 -117 -10 -63 -12 -66 -43 -55 l-23 9 22 12 c27 14 27 19 2
51 l-19 25 -30 -29 c-17 -17 -31 -35 -31 -42 0 -54 -59 -95 -108 -75 -15 6
-52 13 -82 15 -91 8 -179 23 -211 36 -27 12 -36 9 -105 -25 -51 -26 -78 -35
-85 -28 -8 8 -7 13 0 17 21 13 11 27 -10 15 -15 -8 -24 -8 -32 0 -20 20 -68
12 -93 -15 -13 -14 -24 -30 -24 -36 0 -6 -11 -21 -25 -34 -14 -13 -25 -32 -25
-44 0 -18 -30 -31 -30 -12 0 4 -4 14 -10 22 -7 12 -12 12 -29 -4 -12 -11 -21
-27 -21 -37 0 -10 -5 -29 -12 -43 -8 -20 -14 -23 -24 -15 -15 12 -34 4 -34
-16 0 -23 -31 -27 -37 -5 -8 29 -33 25 -33 -5 0 -19 -7 -26 -27 -31 -16 -4
-35 -15 -43 -26 -16 -19 -16 -19 -42 1 -14 12 -36 21 -48 21 -19 0 -22 -4 -18
-27 3 -16 9 -36 13 -46 6 -14 -3 -11 -41 12 -32 21 -51 28 -58 21 -5 -5 -18
-10 -28 -10 -10 0 -18 -5 -18 -11 0 -6 -11 -8 -28 -4 -21 4 -33 1 -46 -14 -10
-11 -15 -25 -11 -30 3 -6 3 -16 -1 -22 -4 -7 -16 -1 -34 16 -26 25 -30 26 -57
13 -35 -17 -44 -57 -14 -65 12 -3 21 -9 21 -14 0 -13 -13 -11 -38 7 -19 13
-28 14 -51 4 -16 -6 -46 -13 -68 -14 -22 -2 -50 -9 -63 -16 -22 -12 -22 -14
-7 -25 22 -16 21 -28 -2 -49 -13 -12 -27 -15 -45 -10 -16 4 -32 1 -41 -6 -9
-7 -18 -10 -22 -7 -11 11 -32 -14 -26 -30 5 -12 -2 -14 -41 -8 -38 6 -46 5
-46 -8 0 -13 -12 -15 -66 -12 -36 2 -71 8 -77 13 -7 5 -28 13 -47 17 -19 4
-42 12 -52 19 -14 8 -21 6 -32 -9 -18 -24 -20 -35 -5 -35 7 0 9 -12 4 -36 l-6
-36 33 7 c30 7 31 6 19 -9 -12 -15 -90 -56 -105 -56 -4 0 -5 5 -3 12 1 6 -11
15 -28 19 -16 4 -41 11 -55 15 l-25 7 25 -27 c26 -29 80 -59 97 -54 5 2 22
-12 37 -29 24 -29 26 -34 11 -39 -18 -7 -61 14 -107 51 -15 13 -42 25 -61 29
-19 3 -42 15 -52 26 -9 10 -37 22 -61 26 -24 3 -60 12 -80 19 -40 13 -62 13
-134 -6 -46 -12 -50 -15 -50 -42 0 -22 -4 -28 -16 -23 -8 3 -29 0 -47 -7 -36
-15 -52 -12 -81 15 -11 10 -25 18 -30 18 -6 -1 2 -12 19 -25 16 -13 27 -26 25
-29 -12 -10 -160 -18 -160 -8 0 6 5 14 10 17 6 3 10 24 10 46 0 38 -1 39 -36
39 -30 0 -34 -2 -25 -14 7 -8 9 -25 5 -39 -3 -14 -2 -32 2 -39 5 -7 8 -22 9
-33 0 -11 7 -20 15 -20 8 -1 24 -6 34 -12 19 -10 19 -11 0 -21 -25 -13 -96 -1
-154 25 -69 32 -109 38 -116 18 -5 -12 -14 -15 -31 -10 -14 3 -42 -2 -69 -14
-25 -11 -69 -23 -97 -27 -77 -9 -228 -44 -258 -60 -17 -9 -60 -13 -130 -13
-57 0 -155 -1 -217 -3 l-112 -3 -18 35 c-20 42 -86 80 -105 61 -9 -10 -5 -18
16 -37 16 -13 31 -37 33 -52 6 -33 30 -71 50 -79 21 -8 17 -23 -6 -23 -10 0
-34 18 -52 41 -30 37 -35 40 -68 34 -45 -8 -130 -33 -153 -46 -24 -13 -67 -1
-99 29 -22 20 -28 22 -28 9 0 -8 5 -19 10 -22 20 -12 9 -21 -20 -17 -29 4 -30
5 -30 64 0 64 -9 88 -48 130 -14 16 -20 28 -14 28 7 0 12 5 12 11 0 5 -10 9
-22 7 -16 -2 -24 3 -26 16 -4 19 3 19 57 5 8 -2 17 4 19 14 3 13 -13 24 -65
48 -37 17 -84 33 -103 36 -19 3 -54 21 -77 40 -50 40 -94 57 -128 49 -13 -3
-27 -2 -30 4 -8 13 -55 13 -55 0 0 -6 17 -29 38 -53 51 -58 82 -104 92 -135 4
-15 11 -35 15 -44 10 -26 -17 -23 -42 5 -11 12 -27 43 -36 68 -17 46 -95 134
-119 134 -7 0 -14 9 -16 19 -6 28 -50 96 -62 96 -7 0 -7 -6 0 -19 13 -26 13
-31 -4 -31 -8 0 -18 -9 -21 -20 -3 -11 -10 -20 -14 -20 -4 0 -5 -19 -1 -43 7
-48 4 -67 -12 -67 -14 0 1 195 17 219 3 6 2 11 -3 11 -6 0 -25 28 -42 63 -18
34 -38 70 -44 80 -8 13 -8 20 3 26 11 7 10 11 -6 20 -11 5 -23 8 -26 5 -3 -3
-34 8 -69 25 -34 17 -70 31 -80 31 -18 0 -48 25 -48 40 0 5 13 7 29 4 27 -6
29 -4 24 16 -5 20 -3 22 15 18 12 -4 22 -2 22 3 0 5 -7 9 -16 9 -9 0 -27 12
-39 26 -12 14 -33 27 -46 29 -13 1 -31 6 -40 10 -13 5 -20 -2 -28 -28 -13 -39
-4 -72 28 -101 14 -13 18 -23 12 -30 -6 -7 -6 -27 -2 -48 9 -40 6 -48 -19 -48
-13 0 -19 12 -24 42 -8 47 -58 102 -100 110 -22 5 -26 2 -26 -20 0 -14 -3 -22
-7 -18 -5 4 -8 20 -8 34 0 20 -8 30 -30 41 -31 15 -207 187 -243 238 -11 16
-24 41 -27 56 -4 14 -17 29 -28 33 -12 4 -25 12 -29 18 -5 8 -8 7 -8 -2 0 -7
-4 -11 -10 -7 -5 3 -18 0 -28 -6 -24 -15 -59 -4 -45 14 6 6 13 26 17 42 4 17
16 39 26 50 15 16 17 27 11 58 -5 21 -5 37 0 37 26 0 79 85 79 126 0 32 -44
61 -65 44 -12 -10 -19 -10 -27 -2 -8 8 -7 13 5 18 9 3 17 15 17 25 0 29 -38
24 -50 -6 -5 -14 -17 -25 -28 -25 -10 0 -27 -9 -37 -20 -21 -24 -65 -27 -65
-5 0 8 5 15 10 15 6 0 10 -4 10 -9 0 -5 9 -7 19 -4 14 3 21 15 23 37 2 17 8
30 14 29 6 -1 25 13 43 31 31 32 32 34 19 74 -9 30 -22 46 -50 62 -43 24 -64
19 -47 -11 15 -29 6 -45 -30 -52 -21 -5 -32 -14 -37 -31 -3 -13 -16 -34 -30
-47 -17 -16 -22 -29 -18 -46 4 -13 2 -23 -4 -23 -6 0 -13 15 -17 32 -13 68
-15 70 -43 63 -14 -3 -32 -14 -39 -23 -9 -12 -12 -13 -13 -4 0 15 39 51 56 52
22 0 65 42 79 77 13 31 13 37 0 56 -19 27 -19 32 2 52 22 23 8 43 -41 60 -42
15 -106 71 -106 93 0 7 3 12 8 10 4 -2 20 -10 35 -18 27 -13 30 -12 53 16 l24
29 34 -40 c35 -40 57 -44 36 -6 -8 16 -8 27 1 43 10 19 9 24 -10 36 -11 8 -21
21 -21 28 0 8 -4 15 -10 16 -32 4 -35 2 -32 -29 4 -36 -3 -40 -31 -18 -11 7
-25 11 -32 9 -23 -9 -25 13 -4 40 24 30 18 46 -17 46 -15 0 -27 7 -30 18 -3 9
-12 31 -20 48 -16 32 -22 133 -10 153 15 24 35 10 38 -27 3 -32 7 -37 31 -40
15 -2 27 -8 27 -13 0 -14 28 -11 33 4 3 6 2 33 -1 60 -4 40 -2 47 12 47 12 0
16 7 14 23 -2 14 -10 22 -23 22 -11 0 -25 3 -31 7 -6 4 -24 -1 -41 -12 l-31
-19 -6 24 c-10 39 5 86 30 95 12 5 24 19 26 31 2 18 16 31 46 46 2 0 -4 25
-12 54 -22 72 -20 106 3 51 26 -66 71 -86 71 -32 0 20 7 33 21 41 18 9 20 16
14 47 -9 49 -9 63 0 87 7 16 6 18 -6 8 -7 -7 -21 -13 -30 -13 -28 0 -32 -31
-8 -57 26 -27 25 -28 -24 -36 -35 -5 -38 -4 -51 26 -7 18 -33 51 -57 74 -68
64 -88 95 -82 126 4 21 9 25 18 17 9 -7 16 -6 25 5 7 8 25 15 40 15 32 0 41
15 29 48 -9 24 -12 24 -107 0 -68 -17 -76 8 -24 74 18 22 12 82 -9 86 -10 2
-20 -10 -29 -38 -18 -55 -45 -52 -45 5 0 36 3 40 28 43 21 3 27 9 27 27 0 13
5 25 12 27 9 3 12 27 10 80 -2 46 1 79 7 83 16 9 13 35 -4 35 -8 0 -15 7 -15
16 0 14 3 14 15 4 13 -11 15 -7 15 28 0 22 4 42 8 44 12 4 23 148 12 148 -17
0 -50 -87 -50 -132 0 -51 -21 -78 -61 -78 -23 1 -23 1 9 31 33 29 33 31 17 55
-13 20 -15 37 -9 82 4 31 7 67 6 80 -1 15 4 22 17 22 21 0 36 39 21 54 -5 5
-25 2 -49 -8 -23 -9 -41 -13 -41 -10 0 19 33 62 54 72 34 15 34 51 0 92 -24
28 -25 32 -11 48 22 24 11 65 -14 59 -15 -4 -19 0 -19 19 0 13 4 24 9 24 6 0
22 11 36 24 26 25 26 25 10 60 -19 40 -11 60 31 76 12 5 24 19 26 32 3 13 8
30 12 39 11 24 -91 23 -123 -2 -13 -11 -36 -19 -52 -19 -15 0 -30 -4 -33 -9
-3 -4 -17 -6 -31 -3 -21 4 -25 1 -25 -19 0 -30 -15 -55 -24 -41 -4 6 -34 16
-67 23 -73 14 -88 30 -21 22 l48 -5 0 41 c-1 22 -4 41 -8 41 -29 0 -43 151
-23 237 7 30 5 33 -17 33 -17 0 -27 8 -35 30 -14 37 -4 38 36 4 26 -21 34 -24
46 -14 8 7 15 18 15 26 0 7 19 48 41 91 43 82 62 139 60 186 -4 86 -3 114 4
136 5 15 4 22 -1 18 -16 -10 -35 8 -28 27 6 15 7 15 20 -1 7 -10 14 -14 14 -9
0 5 -6 17 -13 25 -7 9 -22 52 -31 96 -10 44 -24 91 -31 105 -6 14 -18 54 -24
90 -22 113 -33 165 -42 181 -4 8 -13 56 -19 105 -7 49 -13 93 -14 98 -3 22 25
13 60 -19 48 -43 121 -72 223 -87 102 -16 512 -15 621 2 47 7 101 14 120 15
33 3 157 30 260 57 25 7 94 13 153 15 60 1 134 9 165 17 31 8 93 20 137 27 44
7 84 19 88 26 4 7 17 13 29 13 11 0 36 10 55 21 24 15 55 23 96 24 34 2 68 3
76 4 9 1 12 9 9 25 -4 17 -1 23 9 19 23 -9 83 7 83 23 0 8 15 22 34 31 22 10
36 25 39 42 17 84 28 120 46 156 12 21 21 47 21 57 0 9 4 20 10 23 6 3 10 17
10 30 0 13 4 26 9 29 5 3 12 18 15 33 17 72 42 141 63 172 13 19 23 38 23 42
0 5 9 9 20 9 25 0 34 19 49 100 14 73 30 112 43 104 7 -4 10 7 7 33 0 5 10 10
23 13 30 8 31 36 1 32 -13 -2 -23 2 -23 7 0 6 11 11 25 11 14 0 25 -4 25 -10
0 -17 25 -11 38 10 11 17 10 20 -8 20 -10 0 -24 8 -29 18 -15 28 -21 115 -9
129 6 8 12 51 13 96 1 84 7 109 32 139 12 13 15 63 14 264 0 160 -4 251 -10
257 -16 16 -14 67 2 67 7 0 23 9 35 20 25 24 65 26 82 5 7 -9 20 -13 27 -10 8
3 21 -2 29 -10 9 -8 24 -15 34 -15 20 0 35 -33 45 -96 4 -29 16 -50 42 -75 32
-29 115 -131 171 -207 9 -13 26 -33 38 -45 11 -12 35 -43 54 -69 18 -27 37
-48 41 -48 4 0 10 -8 13 -17 3 -10 32 -46 63 -79 32 -34 91 -98 132 -143 41
-45 80 -81 87 -81 6 0 14 -6 17 -13 3 -8 29 -30 59 -50 29 -20 79 -57 111 -82
31 -25 60 -45 63 -45 3 0 32 -16 63 -35 36 -22 64 -33 74 -29 10 3 45 1 80 -5
115 -21 301 -30 374 -20 37 6 93 14 123 19 151 22 353 63 415 84 39 13 106 34
150 46 44 12 91 25 105 30 57 19 166 63 175 70 6 4 42 20 80 35 39 15 94 38
123 51 29 13 55 24 58 24 21 0 372 188 455 244 72 49 165 126 220 183 90 94
129 187 136 323 4 67 2 99 -6 104 -18 12 -12 36 9 36 24 0 26 17 4 42 -16 17
-15 19 19 33 49 20 85 19 161 -6 43 -14 69 -18 80 -12 18 10 106 -6 106 -19 0
-5 13 -8 28 -8 16 0 32 -3 36 -7 9 -9 68 -28 161 -52 152 -39 260 -103 397
-234 10 -10 30 -22 43 -27 15 -6 33 -28 46 -54 22 -47 49 -71 93 -82 14 -3 26
-12 26 -20 0 -7 10 -16 23 -19 12 -3 30 -19 39 -35 10 -18 25 -30 38 -30 11 0
34 -14 50 -30 34 -35 75 -40 83 -10 3 11 17 24 31 30 14 5 26 14 26 20 0 5 9
10 20 10 11 0 20 7 20 15 0 21 27 30 45 15 24 -20 18 -25 -35 -40 -36 -10 -50
-19 -50 -31 0 -16 4 -16 50 4 56 24 82 17 88 -22 3 -16 10 -21 32 -21 23 0 28
-4 23 -16 -5 -14 -1 -16 30 -10 30 6 38 3 47 -14 6 -11 18 -20 28 -20 9 0 27
-8 39 -18 22 -18 63 -85 63 -103 0 -23 56 -129 68 -129 7 0 10 -4 7 -10 -3 -5
-2 -10 3 -10 6 0 13 31 17 68 8 84 13 91 56 97 52 6 59 25 59 151 0 74 5 126
15 154 8 24 13 57 10 74 -3 17 -7 90 -10 161 -2 72 -7 155 -11 186 -11 103
-43 95 413 103 219 3 432 11 473 16 41 5 305 9 586 10 281 0 626 3 767 7 l257
6 0 4129 0 4128 -7115 0 -7115 0 0 -9680z m4174 3014 c4 -11 13 -14 27 -11 12
3 31 2 44 -3 14 -5 26 -5 33 2 7 7 14 4 23 -10 10 -16 20 -20 37 -15 15 3 27
1 33 -8 6 -11 30 -13 99 -11 49 2 90 -1 90 -5 0 -4 20 -8 45 -9 25 0 45 3 45
8 0 4 11 8 25 8 16 0 25 -6 25 -15 0 -8 5 -15 10 -15 6 0 10 5 10 10 0 13 37
13 45 0 3 -5 -6 -15 -21 -23 l-27 -14 39 -7 c26 -5 40 -4 42 4 3 7 9 5 16 -6
12 -15 15 -14 39 10 32 32 41 33 55 1 12 -26 4 -33 -16 -13 -9 9 -12 8 -12 -5
0 -13 9 -17 41 -17 36 0 41 2 36 20 -4 17 -3 18 16 8 12 -6 25 -17 30 -24 13
-22 65 -27 92 -10 31 20 92 21 112 0 10 -10 24 -13 37 -9 12 4 42 8 69 9 56 3
75 -12 55 -43 -10 -17 -23 -21 -63 -21 -28 0 -56 5 -62 11 -8 8 -13 8 -17 0
-4 -6 -1 -11 7 -11 12 0 12 -7 4 -40 -13 -48 -26 -50 -49 -9 -19 32 -38 31
-38 -3 0 -16 -5 -19 -22 -15 -12 4 -28 1 -34 -4 -7 -6 -23 -7 -36 -3 -29 9
-97 8 -121 -1 -10 -4 -39 -5 -65 -3 -26 3 -41 3 -35 1 10 -3 8 -12 -4 -36 -11
-21 -16 -49 -14 -79 2 -30 -1 -48 -8 -48 -6 0 -11 9 -11 20 0 23 -10 26 -28 8
-17 -17 -15 -28 6 -29 27 -2 -28 -17 -65 -18 -34 -1 -44 -17 -18 -27 27 -11
16 -24 -20 -24 -19 0 -35 -4 -35 -9 0 -14 91 -24 103 -12 8 8 6 11 -6 11 -9 0
-17 5 -17 11 0 7 12 9 33 5 105 -20 107 -19 131 3 29 28 40 61 20 61 -16 0
-18 9 -5 29 11 17 41 7 41 -14 0 -8 9 -15 20 -15 11 0 20 7 20 15 0 9 9 15 25
15 16 0 25 -6 25 -15 0 -8 5 -15 10 -15 6 0 10 18 10 40 0 42 14 54 23 20 9
-35 30 -24 23 13 -7 41 2 54 39 59 21 2 30 8 29 21 -2 21 10 22 30 2 11 -12
25 -14 51 -9 23 4 35 2 35 -5 0 -6 16 -11 36 -11 27 0 37 5 41 19 5 19 64 38
82 26 16 -9 24 15 11 30 -7 8 -10 15 -7 15 3 0 12 3 21 6 11 4 16 1 16 -10 0
-9 6 -16 13 -16 21 0 28 12 16 27 -9 10 -6 13 13 13 19 0 27 -8 37 -36 10 -27
10 -38 2 -44 -16 -10 10 -31 41 -32 52 -3 78 2 78 17 0 8 -7 15 -15 15 -8 0
-15 4 -15 9 0 5 7 11 15 15 8 3 15 2 15 -3 0 -10 71 -32 81 -25 5 3 11 27 15
54 5 39 11 50 25 50 10 0 23 8 28 18 10 16 10 16 11 -1 0 -15 6 -17 48 -11 36
4 57 2 80 -10 17 -9 40 -16 52 -16 11 0 20 -5 20 -12 0 -18 31 -47 45 -42 7 3
15 -2 18 -10 4 -10 1 -16 -8 -16 -8 0 -15 -7 -15 -15 0 -9 9 -15 25 -15 30 0
32 -15 9 -80 -10 -30 -12 -46 -5 -48 6 -2 8 -14 5 -26 -4 -16 3 -29 25 -49 17
-15 31 -25 31 -22 0 3 0 7 0 10 0 3 6 18 15 35 20 38 19 50 -4 50 -25 0 -57
73 -35 78 21 5 18 58 -3 67 -17 7 -16 8 2 15 30 11 38 1 31 -41 -4 -24 -2 -39
4 -39 5 0 10 -7 10 -15 0 -17 36 -39 50 -30 5 3 14 -3 19 -14 8 -14 8 -21 -2
-24 -7 -3 -5 -8 8 -12 11 -4 27 -17 36 -28 13 -16 20 -17 37 -8 31 17 38 -3
34 -103 -3 -77 -5 -86 -23 -86 -10 0 -19 -6 -19 -14 0 -8 -5 -16 -12 -18 -11
-4 -15 -23 -17 -86 -1 -13 -19 -40 -41 -62 -22 -22 -40 -44 -40 -50 0 -5 -6
-10 -14 -10 -17 0 -28 -79 -13 -97 5 -7 6 -25 1 -40 -4 -16 -8 -30 -9 -33 -2
-12 -64 -70 -73 -70 -6 0 -23 -13 -39 -29 -16 -16 -44 -32 -62 -36 -18 -4 -34
-12 -37 -19 -3 -7 -34 -28 -69 -47 -56 -29 -67 -32 -85 -21 -12 7 -20 8 -20 2
0 -5 -5 -10 -10 -10 -6 0 -9 5 -8 12 2 6 -8 17 -22 24 -13 7 -30 20 -36 29 -9
12 -19 14 -40 8 -16 -4 -35 -6 -42 -5 -7 2 -15 -4 -18 -13 -4 -9 -30 -32 -57
-50 -42 -29 -53 -32 -59 -20 -6 10 -18 13 -38 8 -26 -5 -30 -2 -30 16 0 20 -5
23 -57 25 -19 1 -56 48 -68 85 -3 11 -17 24 -31 27 -30 8 -92 83 -76 93 17 10
2 53 -17 49 -10 -2 -16 -14 -17 -34 -2 -57 -21 -67 -63 -35 -23 18 -47 15 -71
-9 -9 -9 -295 -11 -319 -2 -31 11 -71 -6 -71 -32 0 -14 -5 -17 -22 -11 -45 14
-86 17 -92 6 -4 -6 -19 -12 -34 -12 -18 -1 -21 -3 -9 -6 13 -3 17 -12 15 -31
-3 -24 -8 -27 -46 -30 -31 -2 -44 1 -48 13 -4 10 -10 12 -18 6 -6 -5 -42 -14
-80 -19 -37 -6 -73 -17 -80 -25 -25 -33 -83 -49 -145 -42 -33 4 -65 13 -72 21
-9 12 -15 10 -37 -7 -18 -14 -38 -19 -67 -18 -25 2 -39 -1 -38 -9 2 -6 -22
-23 -52 -38 -30 -14 -55 -30 -55 -34 0 -5 -16 -14 -36 -20 -37 -13 -123 -89
-143 -127 -6 -13 -18 -23 -26 -23 -20 0 -30 -21 -14 -30 20 -13 -5 -53 -53
-86 -33 -23 -38 -32 -33 -52 3 -14 0 -34 -9 -47 -9 -13 -20 -45 -26 -70 -17
-76 -51 -110 -165 -166 -56 -27 -106 -49 -111 -49 -5 0 -20 -10 -34 -22 -14
-13 -50 -35 -80 -51 -30 -15 -74 -38 -98 -51 -24 -13 -56 -23 -70 -24 -26 0
-27 2 -28 51 -1 29 -5 65 -9 80 -5 19 -3 33 8 45 8 9 17 37 20 62 8 69 53 242
71 279 21 40 49 217 40 251 -3 14 -6 54 -4 90 1 50 6 69 22 84 15 14 19 28 16
65 -3 46 16 111 33 111 5 0 9 18 9 41 0 41 0 41 35 37 19 -2 35 0 35 4 0 4 4
8 8 8 4 0 6 -16 4 -37 -4 -30 -2 -35 12 -30 25 10 20 -20 -9 -49 -29 -29 -31
-42 -10 -50 10 -4 15 -20 15 -45 0 -21 5 -39 10 -39 6 0 4 -13 -5 -30 -9 -16
-20 -30 -25 -30 -6 0 -10 -18 -10 -40 0 -36 2 -39 21 -31 32 11 74 -32 57 -59
-9 -14 -15 -16 -25 -8 -18 15 -26 4 -18 -22 4 -12 13 -19 19 -17 9 4 13 -4 12
-21 -1 -18 4 -27 14 -27 11 0 15 12 16 45 0 25 4 53 9 64 5 11 4 21 -4 26 -10
5 -10 17 -2 46 6 24 7 54 2 76 -5 23 -5 38 1 40 11 4 11 9 4 138 -3 47 -6 93
-6 103 -1 10 -5 29 -10 42 -7 18 -5 28 5 39 8 8 15 19 15 24 0 5 7 15 15 22 8
7 15 23 15 37 0 13 6 26 13 29 8 3 14 17 15 32 1 36 22 163 28 174 3 4 12 8
20 8 8 0 15 10 15 23 4 78 29 147 54 147 8 0 21 12 27 28 7 15 20 36 30 48 11
12 16 28 12 37 -7 19 -34 23 -34 5 0 -6 -3 -8 -6 -5 -4 4 -1 13 6 22 10 12 16
13 27 4 10 -9 20 -9 36 -2 13 6 35 9 50 6 20 -4 27 -1 27 10 0 8 -6 17 -12 20
-10 4 -10 7 0 18 6 7 12 23 12 35 0 34 10 54 29 55 9 1 6 4 -9 9 -17 5 -19 8
-7 9 10 1 18 10 18 24 l2 22 4 -22 c7 -35 42 -28 57 12 4 11 10 15 14 9 11
-15 49 -14 63 2 6 8 17 14 24 14 7 0 18 7 25 15 14 17 50 20 50 4 0 -6 13 -1
28 10 16 11 37 20 48 20 10 1 36 4 57 7 30 5 41 2 51 -12 11 -15 17 -16 29 -6
8 7 21 11 28 10 7 -2 14 3 15 10 1 6 2 14 3 17 0 3 16 5 35 5 22 0 36 -6 40
-16z m2739 -1151 c3 -5 2 -26 -2 -48 -6 -38 -9 -42 -90 -81 -46 -23 -93 -53
-105 -66 -11 -14 -37 -31 -56 -39 -52 -20 -63 -35 -62 -86 0 -58 12 -69 44
-43 15 11 33 20 41 20 9 0 22 6 29 13 23 21 87 47 103 41 18 -7 20 -34 3 -34
-8 -1 -6 -6 5 -14 9 -7 17 -18 17 -25 0 -17 18 -13 29 7 8 13 10 8 11 -25 l0
-43 39 0 c33 0 44 5 65 33 16 21 23 40 20 54 -4 15 0 26 15 35 12 7 21 23 21
35 0 13 6 23 14 23 7 0 19 7 26 15 7 8 22 14 34 13 25 -2 81 27 118 62 45 43
56 50 78 50 12 0 20 7 20 16 0 14 8 16 53 10 28 -4 54 -11 55 -17 6 -17 22 -9
22 11 0 23 12 25 40 8 16 -10 24 -10 41 0 16 10 24 10 35 1 20 -17 8 -29 -31
-29 -21 0 -35 -6 -39 -16 -8 -21 1 -34 24 -34 11 0 35 -8 55 -17 26 -12 35
-23 33 -37 -2 -11 -9 -21 -16 -24 -9 -3 -11 3 -6 22 7 27 3 29 -33 20 -16 -4
-23 -14 -23 -30 0 -24 -20 -35 -20 -11 -1 7 -7 4 -15 -7 -8 -10 -12 -23 -8
-29 4 -6 -5 -8 -25 -4 -24 5 -32 3 -32 -8 0 -21 -28 -19 -33 3 -3 9 -6 -3 -7
-28 -1 -25 -4 -37 -7 -27 -2 9 -11 17 -19 17 -8 0 -14 8 -14 17 0 13 -12 6
-41 -25 -23 -23 -50 -42 -61 -42 -12 0 -16 4 -12 11 17 28 -120 -21 -170 -60
-6 -4 -51 -11 -100 -15 -102 -8 -133 -26 -122 -70 4 -15 0 -41 -8 -61 -14 -34
-14 -35 6 -35 12 0 19 -3 16 -6 -4 -3 -2 -18 2 -34 5 -17 4 -46 -2 -71 -8 -31
-8 -47 1 -60 13 -22 7 -57 -22 -113 -19 -39 -19 -40 -1 -52 11 -8 24 -17 30
-23 6 -5 37 -15 70 -21 32 -7 64 -18 69 -25 18 -22 94 -55 125 -55 17 0 29 -4
25 -9 -13 -21 19 -21 75 0 37 15 61 30 64 42 4 16 10 18 38 13 101 -22 185
-18 175 8 -3 8 11 17 39 25 23 7 45 18 46 23 3 8 16 7 40 -1 32 -10 42 -9 75
7 51 26 178 46 203 32 26 -14 27 -14 38 19 11 32 2 41 -39 41 -11 0 -31 11
-44 25 -22 21 -24 27 -13 51 11 25 15 26 61 20 27 -3 55 -10 62 -16 9 -8 14
-7 18 2 7 20 126 80 150 76 13 -2 23 -11 25 -24 3 -18 14 -22 75 -31 40 -6 82
-14 95 -18 16 -5 22 -3 22 8 0 34 -20 67 -40 67 -11 0 -20 6 -20 13 0 9 14 14
43 14 153 0 239 27 268 84 20 41 28 46 46 28 8 -8 29 -7 74 1 35 7 91 14 124
17 49 4 64 10 83 31 20 22 26 24 42 14 18 -11 90 -17 90 -8 0 16 -14 36 -26
36 -8 0 -14 5 -14 10 0 6 -9 10 -20 10 -11 0 -30 5 -43 12 -51 26 -59 29 -65
23 -4 -3 -1 -10 6 -14 7 -4 15 -24 18 -43 6 -32 4 -36 -20 -42 -31 -8 -46 -1
-46 21 0 9 -6 13 -15 10 -19 -8 -28 8 -16 30 5 10 14 32 19 49 9 28 7 35 -16
55 -15 13 -40 31 -56 39 -48 24 -44 40 10 40 33 0 51 -5 60 -17 11 -15 15 -16
23 -4 5 7 6 22 4 32 -4 15 0 19 20 19 32 0 46 -40 16 -47 -30 -8 -25 -55 8
-70 27 -13 47 -8 25 6 -9 5 -10 14 -3 32 7 18 10 20 10 6 1 -24 34 -19 39 6 2
12 -3 17 -17 17 -12 0 -21 5 -21 10 0 6 9 10 20 10 11 0 20 -4 20 -9 0 -5 14
-11 30 -15 17 -3 44 -9 60 -12 21 -4 30 -2 30 6 0 9 13 11 53 5 28 -4 69 -8
89 -8 39 -1 58 -21 30 -32 -14 -5 -14 -7 -2 -16 18 -11 -47 -1 -69 11 -20 11
-48 -17 -32 -33 8 -8 11 -7 11 6 0 9 7 17 15 17 19 0 19 -11 0 -36 -15 -20
-21 -84 -7 -84 17 0 22 13 11 27 -9 10 -4 13 25 13 20 0 36 5 36 11 0 7 14 8
40 4 29 -5 40 -3 40 6 0 7 6 5 14 -7 14 -18 15 -16 22 25 6 37 9 41 15 24 8
-22 41 -46 53 -38 3 3 2 0 -3 -6 -6 -7 1 -20 20 -38 36 -32 48 -107 37 -221
-6 -68 -5 -76 12 -89 26 -18 26 -35 1 -21 -29 15 -30 14 -52 -37 -18 -42 -56
-96 -124 -171 -46 -53 -430 -282 -471 -282 -6 0 -17 -7 -24 -14 -6 -8 -28 -20
-48 -26 -20 -7 -51 -18 -69 -26 -17 -8 -40 -14 -51 -14 -11 0 -25 -7 -32 -15
-17 -20 -33 -19 -55 5 -18 19 -18 21 -1 33 16 11 16 15 3 25 -24 20 -94 4
-127 -29 -16 -16 -38 -29 -49 -29 -11 0 -22 -4 -25 -9 -3 -5 -14 -7 -24 -5
-21 5 -66 -31 -57 -46 4 -6 -9 -10 -34 -10 -49 0 -71 -8 -71 -26 0 -8 -7 -14
-16 -14 -8 0 -27 -13 -42 -30 -31 -34 -90 -54 -202 -70 -41 -6 -88 -15 -105
-20 -139 -44 -130 -42 -344 -55 -52 -3 -98 -8 -102 -11 -15 -9 -184 18 -200
32 -8 8 -21 14 -28 14 -55 0 -198 112 -265 208 -17 23 -36 42 -43 42 -8 0 -19
14 -24 30 -6 17 -15 30 -20 30 -5 0 -9 11 -9 25 0 14 -4 25 -10 25 -10 0 -60
51 -60 62 0 4 -12 20 -27 36 -16 16 -39 48 -53 71 -14 24 -35 55 -47 71 -13
15 -23 33 -23 39 0 6 -25 41 -55 76 -30 36 -55 72 -55 80 0 8 -4 15 -8 15 -12
0 -55 90 -82 170 -18 50 -24 93 -26 184 -2 65 -6 121 -8 124 -3 2 3 21 13 41
10 20 16 42 14 49 -8 20 16 41 56 48 56 10 246 92 287 125 20 16 45 29 56 29
10 0 21 7 24 15 6 16 89 22 97 8z m-2057 -809 c6 -8 21 -14 33 -14 11 0 21 -6
21 -12 1 -7 11 -26 24 -42 22 -27 23 -30 10 -73 -8 -25 -11 -49 -8 -54 8 -13
-46 -79 -64 -79 -8 0 -23 -6 -31 -13 -9 -7 -36 -20 -61 -28 -25 -7 -63 -23
-85 -35 -22 -12 -54 -23 -70 -26 -43 -8 -92 -27 -156 -59 -31 -16 -63 -29 -72
-29 -8 0 -40 -13 -72 -30 -31 -16 -75 -34 -98 -41 -23 -6 -67 -22 -97 -37 -35
-17 -72 -26 -102 -27 -39 0 -48 -3 -48 -17 0 -19 -34 -25 -45 -8 -3 5 -16 -2
-29 -17 -22 -25 -24 -26 -66 -12 -35 11 -44 19 -46 39 -1 14 3 31 9 38 12 15
3 118 -12 136 -13 15 -3 57 18 74 13 11 14 16 2 34 -12 19 -11 24 9 40 l23 19
-29 30 c-29 30 -29 31 -9 46 15 11 36 13 79 10 70 -6 99 5 146 56 32 34 38 37
90 37 30 0 71 -4 90 -9 37 -8 63 -4 55 9 -2 4 6 19 20 34 18 19 34 26 63 26
21 0 42 3 46 8 4 4 35 7 69 8 34 0 79 6 101 12 25 7 47 7 64 1 19 -7 31 -5 54
10 25 15 43 18 97 14 39 -3 71 -11 77 -19z m363 9 c33 -10 51 -22 51 -32 -1
-35 -47 -142 -69 -157 -12 -9 -20 -22 -17 -30 7 -19 -51 -71 -86 -78 -39 -8
-71 9 -63 34 4 12 -1 23 -15 33 -16 11 -23 29 -27 71 -4 35 -2 56 4 56 6 0 13
17 16 38 6 32 12 40 54 59 59 27 86 28 152 6z m-1895 -293 c4 -23 11 -30 30
-30 20 0 25 -6 29 -37 2 -21 0 -43 -4 -49 -12 -15 1 -75 18 -81 15 -6 9 -68
-9 -90 -6 -7 -8 -31 -6 -53 4 -43 -6 -49 -44 -29 -42 23 -26 0 27 -36 30 -21
55 -43 55 -49 0 -6 -12 -19 -25 -29 -19 -14 -29 -15 -44 -7 -26 14 -36 13 -23
-2 5 -7 12 -28 14 -46 4 -25 1 -32 -9 -27 -8 3 -19 5 -24 5 -5 0 -9 7 -9 16 0
8 4 13 9 9 5 -3 12 -1 16 5 3 5 -1 10 -10 10 -11 0 -16 7 -14 23 2 12 -5 43
-15 69 -14 35 -16 51 -8 61 17 20 14 137 -4 137 -8 0 -14 -10 -14 -21 0 -28
-21 -100 -33 -116 -7 -9 -5 -13 7 -13 9 0 16 -7 16 -15 0 -11 -8 -15 -27 -13
-24 3 -28 -1 -31 -25 -5 -40 -28 -44 -62 -11 -33 33 -39 68 -13 83 14 7 18 25
19 85 0 42 -3 76 -8 76 -4 0 -8 -9 -8 -20 0 -21 -20 -28 -21 -7 -1 20 -17 -25
-24 -65 -4 -28 -13 -42 -33 -52 -15 -7 -32 -12 -38 -9 -12 4 -35 -62 -28 -82
3 -7 -2 -15 -10 -18 -9 -4 -15 -3 -14 1 1 4 -2 44 -6 89 -5 56 -4 99 4 133 10
43 17 52 57 75 25 14 51 25 57 25 6 1 27 14 46 30 19 17 39 30 46 30 6 0 19 9
29 20 10 11 33 22 52 26 19 4 42 17 51 30 22 31 28 30 36 -6z m1302 -609 c-3
-5 4 -9 17 -10 97 -6 107 -9 128 -35 11 -14 27 -26 35 -26 8 0 14 -7 14 -15 0
-8 6 -15 14 -15 21 0 85 -43 86 -57 0 -7 9 -13 20 -13 11 0 20 -4 20 -10 0 -5
13 -10 29 -10 17 0 31 -6 35 -15 9 -24 56 -38 70 -21 14 19 72 30 81 17 3 -6
-1 -11 -9 -11 -19 0 -31 -19 -20 -30 17 -15 54 -22 54 -10 0 23 30 42 55 36
14 -4 25 -2 25 4 0 5 14 10 30 10 25 0 30 4 30 25 0 14 5 25 10 25 6 0 10 -4
10 -9 0 -5 2 -16 5 -23 3 -8 -4 -24 -15 -36 -17 -18 -18 -22 -5 -22 8 0 15 5
15 10 0 6 14 10 30 10 23 0 30 -5 30 -19 0 -11 -5 -23 -10 -26 -6 -4 -8 -15
-5 -26 6 -19 -58 -129 -76 -129 -5 0 -9 -7 -9 -15 0 -9 -17 -33 -39 -54 -48
-47 -53 -61 -28 -81 13 -11 17 -23 13 -37 -6 -20 -85 -83 -104 -83 -5 0 -15
-7 -22 -15 -7 -8 -19 -15 -27 -15 -8 0 -26 -9 -40 -20 -27 -21 -63 -27 -63
-11 0 6 31 29 70 53 38 24 70 46 70 49 0 18 -32 15 -62 -4 -51 -35 -147 -87
-158 -87 -15 0 -70 -42 -70 -53 0 -5 10 -7 23 -3 12 3 33 3 45 -1 18 -4 20 -8
11 -19 -6 -8 -15 -12 -19 -9 -5 3 -30 -6 -57 -21 -58 -31 -200 -84 -225 -84
-12 0 -18 8 -18 25 0 22 -3 24 -32 18 -41 -7 -68 -21 -68 -33 0 -15 58 -12 63
3 2 6 8 8 13 4 17 -16 -34 -47 -120 -71 -109 -32 -124 -32 -63 0 43 22 51 32
45 51 -4 11 -51 3 -68 -12 -15 -13 -131 -37 -265 -56 -38 -5 -92 -14 -120 -20
-27 -6 -135 -13 -240 -16 -258 -7 -371 18 -466 104 -36 33 -38 37 -32 78 7 53
-2 95 -22 95 -22 0 -25 -14 -9 -44 7 -16 14 -38 14 -49 0 -20 -1 -20 -25 3
-14 13 -25 31 -25 41 0 10 -11 30 -24 46 -17 20 -23 36 -19 55 3 16 -3 46 -16
73 -12 25 -29 64 -39 88 -10 23 -26 59 -35 80 -9 21 -17 51 -17 66 0 37 -29
131 -47 152 -13 15 -9 18 37 24 30 4 56 3 63 -3 7 -5 32 -8 56 -6 25 2 60 -1
80 -7 45 -15 63 5 51 56 -9 40 -2 48 34 39 23 -5 90 -71 98 -95 2 -6 37 -12
78 -14 59 -3 77 -8 85 -22 32 -57 75 -66 133 -29 48 31 129 111 137 137 10 31
45 46 120 52 54 3 85 12 135 38 64 33 68 34 190 34 113 0 125 -2 124 -17 -2
-21 -2 -21 28 -9 13 5 31 12 42 15 15 5 16 9 6 21 -10 12 -9 16 5 21 10 4 25
2 35 -3 13 -9 20 -6 35 13 16 22 64 36 51 15z m-2889 -707 c13 -4 23 -12 23
-20 0 -8 7 -14 15 -14 8 0 20 -9 27 -20 7 -11 20 -20 29 -20 22 0 41 -24 33
-43 -4 -11 3 -17 25 -22 17 -4 31 -10 32 -13 1 -4 2 -30 3 -59 0 -28 4 -54 7
-58 4 -3 2 -25 -3 -47 -5 -23 -6 -54 -3 -70 4 -15 3 -28 -2 -28 -4 0 -10 -37
-11 -82 -2 -45 -10 -91 -17 -102 -7 -12 -16 -42 -20 -68 -4 -33 -13 -51 -26
-58 -10 -6 -19 -19 -19 -30 0 -23 -16 -35 -23 -18 -3 8 -9 3 -16 -12 -9 -21
-11 -12 -7 48 3 40 0 86 -6 103 -7 22 -7 34 0 41 8 8 8 17 1 30 -6 11 -8 26
-5 35 3 8 0 36 -8 61 -45 148 -65 222 -71 262 -4 25 -12 53 -17 63 -13 25 -12
121 1 125 14 5 15 32 1 32 -5 0 -10 7 -10 15 0 13 5 12 22 -5 13 -11 33 -23
45 -26z m-809 -3979 c30 -3 77 -9 105 -12 29 -4 66 -7 82 -7 17 0 33 -5 38
-11 4 -6 10 -6 15 2 6 9 17 10 45 2 21 -5 41 -8 45 -5 11 7 139 -37 185 -63
37 -21 98 -40 148 -46 42 -5 134 -60 210 -126 31 -26 70 -54 85 -61 35 -14
114 -87 114 -105 0 -7 6 -13 14 -13 8 0 21 -9 30 -21 16 -23 60 -49 82 -49 25
0 62 -30 68 -55 3 -13 15 -26 26 -30 10 -3 25 -21 31 -40 7 -19 16 -32 20 -29
4 2 10 0 13 -5 4 -5 2 -12 -3 -15 -5 -3 -9 -21 -9 -38 1 -34 -18 -80 -52 -133
-29 -44 -61 -100 -97 -169 -33 -62 -43 -78 -78 -131 -27 -40 -75 -144 -75
-161 0 -8 -9 -19 -20 -26 -11 -7 -20 -16 -20 -20 0 -5 -7 -16 -15 -25 -8 -10
-28 -33 -44 -52 -37 -45 -54 -37 -91 42 -16 35 -36 69 -44 76 -7 6 -20 26 -27
44 -7 18 -18 35 -25 40 -7 4 -20 28 -30 55 -10 26 -25 57 -33 68 -9 12 -22 30
-28 40 -7 11 -26 39 -43 64 -16 25 -30 50 -30 55 0 6 -20 37 -45 70 -25 33
-45 65 -45 71 0 6 -9 19 -21 30 -12 10 -28 32 -37 49 -8 16 -23 35 -32 42 -10
7 -23 27 -31 45 -7 18 -27 44 -43 58 -16 13 -35 40 -43 60 -9 19 -21 42 -29
50 -7 8 -22 25 -34 38 -11 12 -20 26 -20 31 0 5 -13 20 -29 33 -41 34 -72 80
-74 114 -2 21 -7 28 -20 26 -23 -4 -57 16 -57 33 0 8 -5 15 -10 15 -11 0 -57
45 -113 109 -21 24 -26 38 -21 59 10 39 13 43 37 38 12 -3 46 -8 75 -11z
m10554 -470 c-2 -11 -4 -44 -5 -72 -2 -56 -4 -59 -136 -201 -22 -24 -41 -51
-43 -60 -2 -9 -25 -28 -52 -41 -28 -13 -58 -33 -67 -45 -18 -23 -139 -98 -176
-110 -20 -7 -23 -4 -23 22 0 16 7 35 15 42 8 7 15 18 15 25 0 7 9 30 19 52 11
21 26 57 35 81 15 40 15 43 -4 62 -20 20 -20 20 21 20 33 0 42 4 46 21 5 18
11 20 38 16 28 -5 36 -1 55 25 19 25 22 39 17 79 -4 28 -2 51 4 55 17 10 22
-2 25 -58 1 -29 6 -54 11 -55 16 -6 106 61 122 90 29 52 53 78 70 75 10 -2 15
-12 13 -23z m-8726 -50 c4 -8 12 -15 20 -15 8 0 14 -7 14 -15 0 -8 6 -12 14
-9 11 4 27 -15 25 -32 0 -3 6 -15 14 -27 8 -13 18 -50 22 -84 l7 -62 -44 -31
c-23 -18 -95 -57 -158 -88 -130 -63 -372 -219 -440 -284 -51 -48 -99 -82 -107
-74 -19 19 126 304 239 468 32 47 117 131 213 211 57 47 170 73 181 42z m2211
-1497 c11 -15 10 -35 -1 -61 -5 -11 -4 -23 3 -30 16 -16 14 -47 -4 -47 -8 0
-15 -9 -15 -20 0 -17 3 -18 26 -10 36 14 44 6 44 -46 0 -38 -3 -44 -21 -44
-16 0 -19 -4 -14 -17 28 -71 38 -117 27 -121 -7 -2 -12 -18 -11 -35 1 -30 1
-31 9 -7 l7 25 8 -27 c4 -16 12 -25 18 -21 6 4 8 0 4 -10 -3 -8 -9 -32 -13
-52 -6 -36 -6 -37 17 -30 31 10 31 9 33 39 2 35 13 33 21 -4 9 -43 -4 -91 -26
-97 -15 -4 -19 -15 -19 -50 0 -43 -16 -73 -40 -73 -7 0 -9 -8 -5 -20 3 -10 0
-30 -7 -42 -22 -39 -26 -167 -5 -180 6 -4 0 -9 -16 -13 -22 -6 -27 -13 -27
-36 0 -22 5 -29 19 -29 20 0 37 -29 23 -39 -5 -3 -9 -23 -9 -43 -1 -28 4 -39
17 -43 17 -5 17 -9 4 -40 -8 -19 -10 -35 -5 -35 5 0 11 9 14 21 3 12 10 18 16
14 7 -4 11 5 11 24 0 21 5 31 15 31 10 0 15 11 15 35 0 39 16 46 29 13 6 -16
4 -25 -5 -31 -8 -4 -14 -16 -14 -27 0 -10 -7 -25 -15 -34 -8 -8 -15 -24 -15
-35 0 -11 -14 -30 -30 -43 -18 -13 -28 -28 -25 -36 10 -27 -5 -53 -28 -50 -16
2 -22 -3 -24 -17 -5 -47 -23 -98 -41 -118 -13 -14 -22 -39 -24 -67 -2 -30 -7
-44 -16 -42 -7 1 -15 -6 -18 -15 -6 -19 -35 -79 -58 -123 -7 -14 -48 -95 -91
-180 -43 -85 -84 -162 -91 -171 -8 -8 -14 -27 -14 -40 0 -14 -29 -82 -65 -152
-36 -70 -65 -135 -65 -145 0 -21 -18 -42 -37 -42 -19 0 -17 16 23 152 20 67
42 152 49 188 17 86 43 214 56 269 5 25 17 117 25 205 8 89 17 188 20 221 3
33 12 110 20 170 9 61 22 166 29 235 19 169 31 251 49 345 9 44 21 105 27 135
14 77 120 520 131 549 7 20 11 21 24 10 13 -11 17 -10 25 4 12 20 42 22 56 5z
m-481 -2605 c4 -14 2 -40 -3 -57 -6 -20 -6 -42 -1 -56 5 -14 6 -36 2 -50 -13
-52 -13 -115 2 -137 19 -29 18 -47 -2 -39 -14 5 -15 2 -9 -21 12 -49 11 -96
-3 -101 -11 -3 -12 0 -3 17 10 18 9 21 -7 21 -25 0 -42 20 -42 50 0 14 -11 56
-25 94 -14 38 -25 76 -25 85 0 9 19 64 42 122 42 109 61 126 74 72z"/>
<path d="M4730 12410 c-8 -5 -54 -10 -102 -10 -81 0 -88 -2 -88 -20 0 -11 5
-20 10 -20 6 0 10 -15 10 -32 1 -21 11 -45 26 -63 l26 -30 -6 43 c-6 37 -4 42
14 42 13 0 20 7 20 20 0 17 7 20 43 20 61 0 117 11 117 23 0 11 -30 36 -45 37
-5 0 -17 -5 -25 -10z"/>
<path d="M6968 8957 c-108 -42 -204 -131 -176 -164 15 -18 39 -16 68 7 36 28
68 26 76 -5 8 -31 18 -31 110 1 70 25 79 26 142 16 37 -6 77 -9 90 -6 19 6 21
11 18 51 -5 52 -21 66 -106 100 -33 13 -77 22 -110 22 -33 0 -78 -9 -112 -22z"/>
<path d="M5670 8654 c-66 -27 -80 -37 -80 -62 0 -13 -7 -30 -17 -37 -18 -13
-10 -35 13 -35 8 0 14 -2 14 -5 0 -8 -24 -48 -37 -63 -7 -7 -13 -18 -13 -24 0
-7 -5 -6 -14 1 -9 7 -17 8 -20 3 -3 -6 1 -12 9 -16 8 -3 15 -12 15 -20 0 -8
21 -24 48 -36 26 -12 54 -26 62 -31 8 -5 32 -19 53 -31 27 -16 36 -28 33 -41
-4 -15 0 -17 22 -13 15 3 43 7 62 8 29 3 35 0 38 -19 2 -14 11 -23 25 -25 28
-4 29 -33 2 -34 -11 -1 -29 -5 -39 -9 -17 -7 -17 -10 -3 -20 22 -16 25 -57 6
-75 -9 -8 -19 -34 -23 -58 -6 -40 -35 -82 -56 -82 -5 0 -10 -7 -10 -16 0 -11
5 -14 16 -10 9 3 28 7 42 7 20 1 22 3 8 6 -17 4 -15 7 12 19 37 15 66 69 65
122 -1 26 4 33 24 38 13 4 30 1 36 -5 8 -8 7 -11 -6 -11 -18 0 -23 -25 -7 -35
6 -4 8 -11 5 -16 -4 -5 -8 -19 -10 -31 -3 -12 -10 -25 -17 -29 -10 -6 -8 -12
7 -23 11 -9 23 -16 27 -16 10 0 38 55 38 74 0 21 33 76 46 76 7 0 14 9 17 20
3 11 11 19 18 18 6 -2 16 12 21 30 6 21 18 36 33 42 38 15 35 64 -5 82 -18 8
-28 18 -25 26 3 8 5 17 5 21 0 4 17 7 38 7 20 0 45 4 55 8 11 5 17 4 17 -3 0
-6 -7 -11 -15 -11 -8 0 -15 -4 -15 -10 0 -13 13 -13 27 1 8 8 19 7 39 -4 23
-12 26 -17 13 -22 -11 -4 -14 -15 -11 -36 2 -17 -1 -41 -8 -54 -11 -20 -9 -27
13 -51 35 -37 60 -27 51 21 -8 45 37 130 66 122 10 -3 21 1 23 8 7 17 77 27
94 13 7 -6 41 -11 75 -12 54 -1 63 -4 66 -21 2 -11 11 -25 19 -32 9 -7 17 -25
18 -40 3 -48 5 -53 14 -53 5 0 12 13 16 29 6 29 24 33 69 15 14 -5 17 -3 14 7
-2 8 -14 15 -25 17 -18 3 -22 11 -25 59 -1 30 0 57 5 60 4 2 22 -3 39 -11 40
-20 52 -9 41 35 -6 23 -16 35 -30 37 -14 2 -19 9 -16 20 4 18 55 52 78 52 8 0
30 8 49 18 80 39 14 77 -84 48 -29 -9 -58 -20 -64 -24 -8 -7 -79 -30 -116 -38
-19 -4 -68 -28 -81 -40 -12 -11 -49 -16 -125 -20 -154 -7 -169 -10 -184 -39
-11 -21 -20 -25 -54 -24 -53 2 -78 8 -71 19 3 4 -20 11 -50 15 -36 4 -62 14
-75 27 -18 20 -18 21 0 41 11 11 16 25 12 31 -4 7 -8 4 -10 -7 -2 -9 -8 -15
-12 -12 -5 3 -4 16 2 30 9 19 7 29 -11 54 -12 17 -28 31 -34 32 -30 2 -53 10
-115 40 -65 31 -132 45 -162 33z"/>
<path d="M7969 8421 c12 -16 21 -37 21 -46 0 -9 8 -30 17 -46 21 -36 11 -47
-22 -25 -14 9 -29 15 -33 12 -4 -2 -5 -29 -4 -59 3 -46 7 -56 28 -66 27 -12
32 -36 9 -45 -20 -7 -19 -48 3 -74 9 -12 25 -33 35 -47 14 -20 23 -24 44 -19
18 5 24 3 19 -5 -4 -6 -2 -11 4 -11 7 0 14 9 17 20 3 11 9 20 14 20 5 0 9 12
9 28 0 19 3 23 9 13 5 -7 7 -21 4 -31 -3 -9 2 -23 10 -31 20 -20 57 -107 57
-133 0 -12 14 -32 33 -47 28 -23 40 -26 84 -22 50 5 50 5 55 -26 4 -28 2 -31
-21 -31 -14 0 -33 -5 -41 -10 -13 -8 -11 -13 10 -34 14 -14 50 -39 80 -55 42
-23 49 -31 32 -31 -42 0 -88 28 -199 120 -9 8 -18 6 -32 -7 -18 -17 -18 -23
-4 -107 13 -85 13 -90 -8 -132 -11 -24 -25 -44 -30 -44 -17 0 -86 -74 -103
-110 -24 -51 -58 -71 -129 -77 -65 -6 -93 -22 -108 -60 -5 -14 -17 -23 -29
-23 -16 0 -20 -7 -20 -31 0 -26 3 -30 18 -24 40 16 168 55 180 55 15 0 124 52
167 80 17 11 49 29 72 40 23 12 44 27 46 35 3 7 31 25 61 39 39 19 56 32 56
46 0 10 6 23 14 27 7 4 18 18 25 31 6 12 18 22 27 22 8 0 27 12 41 26 21 21
39 28 89 32 61 4 64 4 75 -22 7 -14 20 -26 31 -26 22 0 24 -16 3 -24 -19 -7
-20 -40 -1 -55 19 -16 26 -80 14 -132 -25 -120 -29 -150 -29 -218 1 -41 5 -77
9 -80 14 -9 24 -119 11 -123 -7 -2 -4 -19 9 -48 12 -25 23 -53 26 -62 3 -10
15 -18 26 -18 11 0 20 -5 20 -10 0 -6 -6 -10 -12 -8 -20 3 -58 -12 -58 -23 0
-6 5 -7 10 -4 6 3 10 2 10 -3 0 -6 -6 -12 -13 -15 -8 -3 -19 -31 -25 -63 -16
-75 -15 -83 4 -56 12 18 19 20 29 12 19 -15 38 -2 32 21 -10 36 51 56 116 38
83 -23 107 -27 107 -17 0 5 -15 15 -34 23 -19 8 -37 19 -41 25 -4 6 -23 7 -46
4 -26 -4 -39 -3 -39 5 0 6 -6 11 -14 11 -23 0 -29 18 -12 35 11 11 15 12 19 2
8 -22 14 -3 20 54 3 39 1 56 -7 56 -22 -1 -76 16 -76 24 0 4 10 10 23 12 l22
4 -22 2 c-13 0 -23 8 -23 16 0 18 20 20 20 3 1 -21 30 24 31 46 0 12 3 15 6 8
2 -6 9 -10 14 -6 14 8 11 44 -3 44 -7 0 -1 7 14 14 16 8 45 13 68 11 42 -4 52
9 25 29 -11 8 -14 20 -9 44 13 63 47 28 59 -60 7 -51 -6 -88 -30 -88 -20 0
-19 -10 4 -39 15 -20 21 -22 40 -12 27 15 41 7 41 -23 0 -13 7 -40 15 -59 20
-47 19 -48 -9 -41 -13 3 -27 1 -30 -4 -3 -6 -15 -8 -26 -5 -14 4 -20 0 -20
-11 0 -9 5 -15 12 -14 10 3 21 -26 35 -94 3 -16 19 -36 42 -51 20 -13 43 -37
51 -53 24 -49 31 -55 45 -44 9 8 11 20 6 38 -12 40 -1 60 32 56 21 -2 27 2 27
17 0 26 19 24 24 -3 3 -13 8 -36 11 -53 3 -16 9 -43 12 -60 9 -48 28 -63 85
-63 51 -1 88 -21 88 -49 0 -7 6 -13 13 -13 8 0 22 -9 32 -20 13 -15 31 -20 66
-20 39 0 49 -4 54 -20 6 -20 20 -26 29 -12 2 4 -1 14 -7 23 -14 18 -91 59
-112 59 -21 0 -57 51 -51 73 3 11 -2 26 -10 35 -8 8 -13 21 -10 29 6 16 -76
105 -106 116 -10 4 -18 17 -18 29 -1 25 -52 88 -72 88 -20 0 -36 33 -27 55 4
11 8 39 8 61 1 45 -11 57 -48 47 -29 -7 -41 25 -15 44 18 13 25 49 24 118 0
16 -12 48 -25 71 -20 34 -24 55 -24 115 1 206 2 197 -52 267 -28 35 -51 73
-52 85 -2 12 -13 52 -27 88 -25 70 -64 109 -109 109 -16 0 -48 25 -102 82 -43
45 -81 79 -85 75 -4 -4 11 -33 34 -66 l40 -59 -19 -37 c-13 -25 -18 -46 -14
-65 3 -15 2 -31 -4 -34 -15 -10 -42 24 -36 45 11 33 -64 219 -99 248 -9 8 -16
17 -16 22 0 15 -93 104 -132 126 -46 27 -108 40 -108 24 0 -7 21 -34 47 -62
25 -27 44 -51 41 -54 -8 -8 -82 52 -102 83 -11 16 -39 41 -64 56 -48 29 -52
43 -7 26 16 -6 34 -9 42 -6 15 6 18 36 3 36 -5 0 -18 8 -28 18 -19 19 -106 74
-133 84 -9 4 -29 0 -44 -8 -32 -17 -45 -18 -45 -4 0 12 -33 61 -64 98 -28 32
-41 27 -17 -7z m845 -678 c7 -18 26 -17 26 2 0 10 10 15 30 15 29 0 30 -2 30
-45 0 -31 5 -47 15 -51 31 -12 16 -30 -22 -26 l-36 5 6 -74 c13 -141 24 -165
94 -217 34 -26 60 -48 58 -50 -10 -10 -75 31 -118 75 -71 72 -82 101 -82 221
0 88 -3 105 -17 113 -10 6 -18 18 -18 28 0 21 27 24 34 4z"/>
<path d="M11431 8441 c-8 -5 -10 -14 -6 -21 4 -7 2 -36 -5 -66 -15 -63 -4 -87
39 -82 18 2 31 14 45 45 11 23 28 44 38 46 41 11 8 68 -40 72 -18 1 -35 5 -39
9 -8 8 -15 8 -32 -3z"/>
<path d="M7720 8394 c0 -6 60 -134 67 -144 2 -2 8 2 13 10 8 12 15 9 36 -17
14 -18 35 -33 46 -33 19 0 20 4 14 42 -8 48 -21 68 -45 68 -9 0 -28 18 -41 40
-21 33 -31 40 -57 40 -18 0 -33 -3 -33 -6z"/>
<path d="M7634 8319 c-3 -6 9 -27 28 -47 36 -39 88 -113 88 -125 0 -14 44 -71
92 -121 27 -26 48 -52 48 -56 0 -4 7 -13 15 -20 13 -11 13 -14 -2 -26 -16 -12
-16 -13 10 -14 16 0 30 -7 32 -15 16 -51 14 -49 34 -29 18 18 17 19 -5 27 -17
6 -24 16 -24 36 0 15 -7 36 -15 47 -8 10 -15 40 -15 65 0 40 -5 52 -43 93 -25
26 -52 46 -64 46 -12 0 -34 16 -52 38 -49 59 -102 112 -111 112 -5 0 -12 -5
-16 -11z"/>
<path d="M7515 8260 c-9 -14 12 -48 43 -67 43 -27 71 -65 83 -108 21 -75 19
-71 30 -55 8 11 9 10 4 -7 -4 -16 -2 -23 8 -23 9 0 18 -16 23 -42 7 -33 19
-49 52 -75 23 -18 49 -30 57 -27 8 4 15 2 15 -4 0 -6 -6 -12 -12 -14 -7 -3 6
-5 30 -6 51 -2 55 14 7 34 -23 9 -40 25 -49 48 -8 19 -24 40 -36 46 -16 8 -20
18 -16 34 3 13 -4 38 -19 65 -14 24 -25 49 -25 55 0 17 -89 98 -100 91 -5 -3
-23 11 -41 30 -35 37 -44 41 -54 25z"/>
<path d="M6490 8216 c0 -28 -24 -51 -45 -43 -8 4 -18 0 -22 -8 -5 -8 -26 -21
-48 -28 -30 -11 -41 -20 -43 -38 -3 -22 3 -26 45 -37 76 -20 108 -8 138 49 20
40 22 49 10 49 -13 0 -14 4 -5 20 8 14 8 26 0 40 -15 27 -30 25 -30 -4z"/>
<path d="M8917 8233 c8 -3 11 -14 7 -27 -3 -14 1 -29 10 -39 9 -8 16 -20 16
-25 0 -5 7 -15 15 -22 8 -7 15 -20 15 -30 0 -10 13 -23 30 -30 66 -27 94 -81
89 -170 -3 -61 27 -106 64 -94 19 6 20 5 8 -10 -19 -23 -26 -21 -71 20 -21 20
-43 33 -49 30 -5 -3 -11 -24 -13 -45 -2 -22 0 -37 4 -35 5 3 8 1 8 -5 0 -5 -4
-13 -10 -16 -16 -10 -12 -23 9 -30 22 -7 100 -80 102 -95 1 -5 2 -15 3 -21 0
-7 14 -21 29 -33 24 -18 29 -19 37 -6 9 13 11 13 21 0 9 -13 10 -12 5 3 -3 10
-6 22 -6 26 0 4 -15 24 -33 45 -27 30 -34 46 -35 81 0 46 10 55 67 55 24 0 24
1 18 78 -3 42 -10 88 -15 102 -6 14 -13 37 -17 53 -6 29 -88 127 -139 165 -19
14 -40 21 -55 19 -16 -3 -25 1 -28 12 -5 21 -54 51 -80 50 -10 0 -13 -3 -6 -6z"/>
<path d="M6276 8015 c-9 -13 -16 -32 -16 -41 0 -14 2 -14 16 -3 14 11 18 10
30 -6 8 -10 14 -15 14 -10 0 4 8 2 18 -6 9 -8 29 -14 45 -13 15 0 27 -3 27 -7
0 -5 -4 -9 -10 -9 -10 0 -8 -54 6 -204 l7 -68 -27 17 c-35 23 -34 7 6 -68 32
-59 75 -97 111 -97 10 0 29 -7 42 -16 14 -9 32 -13 45 -9 12 4 27 1 35 -5 20
-17 35 -4 35 30 0 50 31 47 34 -3 1 -11 8 -22 16 -25 12 -4 12 -2 3 8 -9 10
-7 17 10 31 22 17 22 18 5 51 -10 18 -21 49 -24 68 -7 35 -7 35 14 17 11 -10
23 -29 26 -42 10 -40 86 -38 86 2 0 7 8 13 18 13 10 0 24 6 31 13 11 10 13 10
7 0 -5 -9 1 -13 17 -13 20 0 24 4 20 20 -3 11 -9 20 -13 20 -4 0 -12 11 -18
24 -7 16 -24 29 -49 35 -42 12 -83 37 -83 52 0 13 54 11 68 -3 9 -9 12 -9 12
-1 0 7 -4 15 -10 18 -5 3 -10 16 -10 29 0 12 -6 23 -12 24 -69 8 -143 30 -143
43 0 9 9 13 28 11 27 -3 39 19 17 33 -5 3 -17 21 -26 40 -33 70 -138 92 -206
44 -32 -22 -52 -25 -45 -5 4 11 -10 17 -57 25 -83 15 -81 15 -100 -14z"/>
<path d="M6025 7868 c-17 -46 -32 -107 -25 -103 10 6 20 -20 20 -55 0 -15 7
-33 15 -40 8 -7 15 -19 15 -26 0 -20 -27 -17 -39 4 -10 16 -10 16 -11 0 0 -10
4 -18 8 -18 9 0 37 -72 31 -80 -2 -3 -8 -4 -12 -2 -4 1 -10 -5 -14 -14 -5 -13
-8 -13 -15 -2 -7 9 -8 4 -4 -14 5 -24 3 -28 -14 -28 -11 0 -23 7 -26 15 -7 16
-24 21 -24 6 0 -5 11 -23 25 -39 l25 -30 -25 -6 c-34 -9 -41 -4 -66 52 -15 32
-22 66 -21 105 0 50 -2 57 -19 57 -25 0 -34 23 -19 50 9 16 8 25 -1 36 -17 21
-54 14 -54 -11 0 -30 -13 -45 -41 -45 -19 0 -26 -6 -31 -31 -3 -17 -12 -33
-19 -36 -19 -7 -18 -49 1 -57 8 -3 15 -12 15 -21 0 -20 29 -19 53 3 20 17 20
16 13 -32 -3 -27 -6 -55 -6 -62 0 -7 -9 -16 -20 -19 -18 -6 -19 -8 -4 -22 13
-14 15 -31 9 -112 -4 -53 -9 -98 -11 -100 -2 -2 -15 4 -30 14 -27 17 -27 18
-20 102 3 47 11 94 17 105 13 25 -2 44 -42 53 -16 4 -29 10 -29 13 0 4 -5 14
-10 22 -8 13 -11 12 -24 -5 -9 -11 -16 -28 -16 -37 0 -21 -46 -76 -55 -66 -10
9 12 72 35 100 11 14 20 47 23 83 3 33 9 72 12 87 5 19 1 35 -14 57 -12 16
-21 40 -21 54 0 14 -8 33 -17 43 -16 16 -18 15 -27 -5 -6 -14 -5 -34 4 -61 13
-41 4 -70 -24 -70 -6 0 -17 -9 -24 -20 -12 -20 -62 -29 -62 -11 0 5 -9 11 -21
14 -14 4 -18 10 -14 19 4 7 -4 0 -19 -17 -14 -16 -28 -39 -32 -50 -4 -11 -17
-34 -30 -51 -24 -31 -33 -71 -14 -59 21 13 9 -38 -15 -67 -14 -16 -25 -42 -25
-58 0 -40 -17 -81 -41 -98 -13 -9 -18 -20 -14 -33 4 -11 2 -19 -5 -19 -21 0
-50 21 -50 35 0 8 -4 15 -10 15 -5 0 -10 5 -10 12 0 6 3 8 7 5 9 -10 33 13 33
30 0 11 -7 13 -25 9 -18 -5 -27 -2 -32 9 -8 22 15 45 26 27 5 -9 10 6 14 39 4
29 5 55 2 57 -8 9 -25 -10 -25 -29 0 -10 -6 -19 -14 -19 -8 0 -17 -13 -21 -30
-5 -22 -12 -30 -28 -30 -18 0 -19 -2 -7 -11 11 -8 12 -12 3 -16 -7 -2 -13 -18
-13 -33 0 -16 -4 -31 -9 -35 -14 -8 -22 27 -13 60 11 43 4 72 -19 78 -17 5
-19 9 -10 26 6 11 11 27 11 35 0 20 -27 10 -34 -12 -3 -10 -4 -5 -2 11 4 32
-5 35 -19 6 -10 -21 -34 -24 -26 -4 2 6 6 22 9 38 4 26 2 27 -34 27 l-39 0 24
19 c29 22 17 31 -26 19 -21 -5 -33 -15 -34 -26 0 -9 -3 -12 -5 -5 -9 21 -62
-6 -85 -43 -11 -19 -25 -34 -31 -34 -13 0 -73 -65 -93 -101 -8 -14 -16 -56
-18 -92 -2 -54 0 -67 12 -70 10 -3 8 -5 -6 -6 -14 -1 -24 -11 -31 -31 -12 -33
-5 -101 12 -112 8 -5 7 -8 -1 -8 -15 0 -17 -68 -3 -90 7 -11 10 -11 10 -2 0 7
5 10 11 6 7 -4 8 -19 4 -38 -10 -46 -14 -286 -4 -291 4 -3 17 -34 29 -70 12
-36 27 -68 34 -72 15 -10 46 -59 46 -73 0 -6 25 -35 55 -65 44 -44 55 -62 55
-88 0 -40 12 -59 35 -55 9 2 22 -5 28 -14 9 -14 6 -23 -21 -49 -38 -38 -41
-67 -8 -98 21 -20 31 -22 70 -17 50 8 64 -8 22 -23 -13 -5 -26 -16 -29 -25 -4
-11 -15 -13 -41 -9 -28 4 -36 2 -36 -9 0 -9 -6 -21 -14 -27 -8 -7 -12 -20 -9
-31 3 -11 -7 -38 -26 -65 -17 -25 -34 -57 -37 -70 -3 -14 -10 -25 -14 -25 -4
0 -10 -9 -13 -20 -6 -24 -3 -25 36 -3 57 32 77 54 77 89 0 19 6 34 15 38 9 3
23 22 31 42 10 24 20 34 32 32 20 -4 29 -55 13 -71 -6 -6 -11 -19 -11 -29 0
-11 -7 -18 -19 -18 -21 0 -31 -19 -31 -56 0 -15 -6 -24 -15 -24 -9 0 -34 -19
-56 -41 -37 -38 -40 -44 -32 -75 l8 -33 50 49 c76 74 86 88 92 127 6 33 26 53
40 39 3 -3 7 -44 9 -91 3 -70 1 -85 -12 -85 -12 0 -12 -4 -4 -20 12 -23 35
-27 27 -5 -7 17 4 27 19 17 6 -4 16 -23 24 -42 18 -47 29 -60 45 -54 9 4 11
13 5 33 -11 38 -11 109 0 116 14 9 50 -13 50 -30 0 -7 7 -21 16 -29 9 -10 13
-24 9 -36 -5 -16 -2 -20 15 -20 11 0 23 7 27 16 3 9 15 14 32 12 23 -3 26 0
24 25 -1 15 1 27 5 27 11 0 72 -94 72 -111 0 -9 9 -24 19 -33 11 -10 29 -40
41 -67 11 -28 39 -68 61 -90 45 -45 46 -65 2 -62 -30 3 -31 2 -38 -53 -4 -35
-3 -60 4 -68 9 -10 8 -15 -4 -20 -18 -7 -20 -36 -2 -36 18 0 36 37 39 80 4 44
30 52 47 14 6 -15 14 -47 18 -73 3 -25 12 -52 21 -58 13 -11 18 -8 28 17 15
34 35 32 52 -4 13 -30 3 -153 -14 -167 -20 -17 -17 -79 6 -124 11 -22 20 -47
20 -57 0 -10 13 -51 29 -91 16 -39 32 -83 35 -97 4 -14 18 -38 32 -55 l26 -30
-7 30 c-10 41 -6 124 6 146 23 44 46 11 64 -93 4 -21 12 -38 17 -38 12 0 47
-41 48 -56 0 -6 9 -19 20 -29 17 -15 41 -75 44 -110 3 -28 19 -55 41 -69 15
-10 25 -26 25 -41 0 -13 8 -30 18 -37 11 -7 22 -32 26 -56 6 -42 6 -42 -19
-36 -15 4 -25 2 -25 -5 0 -15 -27 -14 -32 1 -3 7 -18 13 -34 14 -16 1 -31 3
-34 3 -4 1 -4 17 -2 37 4 31 6 34 21 21 18 -17 83 -28 79 -15 -2 5 -17 17 -33
26 -16 9 -38 27 -48 40 -10 12 -25 22 -32 22 -8 0 -19 8 -25 18 -10 14 -10 13
-4 -8 4 -14 8 -46 9 -72 0 -26 4 -50 8 -54 4 -4 7 -15 7 -25 0 -10 22 -37 50
-61 l50 -43 -7 -52 c-5 -50 -4 -52 20 -58 37 -10 47 1 47 51 0 37 3 44 19 44
11 0 23 -5 26 -10 4 -6 15 0 27 15 13 17 17 30 11 38 -15 19 -41 97 -54 157
-6 30 -24 96 -39 145 -16 50 -36 116 -45 147 -9 32 -32 78 -51 103 -20 25 -34
53 -32 63 3 13 8 10 21 -13 l16 -30 1 61 c0 59 -11 84 -37 84 -7 0 -13 -7 -13
-15 0 -32 -18 -13 -31 33 -7 26 -30 69 -51 95 -36 47 -47 68 -30 66 20 -3 32
2 32 16 0 8 7 15 15 15 8 0 15 5 15 10 0 6 -5 10 -11 10 -6 0 -1 14 11 31 19
25 27 29 51 24 27 -6 38 3 23 18 -4 4 -15 30 -25 59 -23 65 -24 163 -3 213 8
20 15 59 16 86 0 27 4 51 8 54 5 3 15 18 23 33 8 15 31 58 51 95 21 38 35 71
32 74 -2 3 4 21 15 40 11 19 17 43 14 53 -3 9 -1 29 4 43 6 16 7 29 1 32 -5 3
-8 28 -8 55 1 27 -4 56 -11 64 -11 13 -10 18 3 31 9 9 16 31 16 48 0 22 3 28
9 18 5 -7 14 -10 20 -7 6 4 11 0 11 -9 0 -11 -5 -15 -15 -11 -9 3 -15 0 -15
-9 0 -8 7 -15 15 -15 8 0 15 -4 15 -10 0 -5 4 -10 9 -10 12 0 21 39 10 46 -5
3 -9 13 -9 22 0 14 2 15 10 2 7 -12 11 -10 18 10 6 15 6 29 1 34 -5 6 -9 27
-9 48 0 45 21 59 50 33 18 -16 19 -15 35 9 37 56 56 20 36 -67 -10 -43 -21
-59 -28 -39 -3 6 -12 12 -21 12 -15 -1 -15 -2 1 -11 12 -7 17 -23 17 -60 0
-43 3 -50 18 -47 10 2 22 20 30 43 7 22 23 50 34 63 21 21 21 23 3 36 -18 13
-17 15 14 45 17 17 36 31 41 31 6 0 10 -18 10 -40 0 -29 4 -40 15 -40 8 0 15
-4 15 -9 0 -10 36 -21 44 -13 3 3 1 11 -5 18 -16 20 30 64 57 53 l22 -7 -21
49 c-16 37 -18 52 -9 61 15 15 42 -7 42 -33 0 -22 0 -22 35 -9 23 9 25 8 15
-9 -15 -29 -12 -41 9 -41 27 0 37 37 16 60 -11 12 -13 20 -6 25 6 3 11 15 11
25 0 17 2 18 27 5 15 -8 29 -12 31 -10 7 7 -9 25 -24 25 -8 0 -14 6 -14 14 0
8 -7 21 -15 30 -13 12 -13 19 -3 35 16 26 3 39 -22 23 -29 -18 -50 -15 -50 7
0 10 -7 21 -15 25 -10 4 -15 -1 -15 -14 0 -11 -4 -20 -10 -20 -5 0 -10 7 -10
16 0 12 -5 10 -19 -7 -11 -13 -16 -26 -13 -29 10 -7 9 -60 -1 -60 -4 0 -17 5
-28 10 -23 13 -27 55 -5 47 10 -4 13 -1 9 9 -8 20 -61 17 -90 -6 -19 -15 -30
-17 -44 -10 -23 13 -14 40 13 40 25 0 51 26 44 45 -9 24 -33 17 -59 -17 l-25
-31 -44 14 c-31 11 -54 12 -79 6 -38 -10 -49 -22 -49 -55 0 -26 -21 -38 -46
-24 -20 11 -103 -4 -122 -23 -8 -7 -16 -38 -18 -69 -4 -57 -26 -116 -44 -116
-6 0 -10 -4 -10 -10 0 -5 7 -7 16 -3 27 10 32 -17 12 -59 -17 -36 -18 -42 -5
-55 13 -13 18 -13 47 2 39 20 44 16 36 -30 -8 -39 -21 -43 -67 -19 -51 26 -73
54 -71 91 3 32 1 33 -33 33 -19 0 -35 4 -35 10 0 5 -20 9 -45 8 -25 0 -45 -4
-45 -9 0 -10 -31 -12 -54 -3 -20 8 -21 34 -1 34 8 0 15 4 15 10 0 5 -7 7 -15
4 -11 -4 -15 0 -15 16 0 13 5 20 12 18 16 -6 38 16 38 37 0 12 -5 15 -17 10
-32 -12 -38 -10 -39 10 -1 11 -2 26 -3 33 -1 6 -10 12 -22 12 -14 0 -19 5 -16
14 4 10 1 13 -9 9 -13 -5 -15 1 -12 27 3 31 0 34 -29 42 -26 7 -33 14 -33 33
0 16 -6 25 -16 25 -10 0 -14 7 -12 23 2 17 -4 24 -29 31 -24 7 -36 20 -48 50
-10 23 -24 53 -32 69 -13 25 -13 27 6 27 12 0 21 5 21 10 0 6 -16 8 -37 6 -38
-5 -68 9 -57 26 3 5 -4 20 -16 33 -12 13 -19 28 -16 33 3 5 -1 15 -9 22 -8 7
-15 18 -15 24 0 6 -16 35 -36 64 -26 39 -33 59 -28 75 4 12 8 67 8 122 1 58 6
109 13 121 7 12 11 34 10 50 -1 20 3 29 13 29 15 0 17 -12 19 -122 1 -21 12
-44 31 -66 16 -19 27 -37 24 -40 -3 -3 7 -28 23 -56 27 -48 43 -64 43 -40 0 5
14 15 30 20 17 6 30 15 30 20 0 5 4 9 10 9 5 0 9 -6 7 -12 -1 -9 14 -14 46
-16 26 -2 47 -8 47 -14 0 -6 11 -8 26 -5 14 2 39 -2 56 -10 16 -9 42 -16 56
-16 33 -2 48 -19 24 -29 -12 -5 -10 -7 11 -7 21 -1 27 4 27 20 0 31 24 17 30
-17 6 -32 6 -32 148 -18 47 4 72 3 72 -4 0 -5 11 -13 24 -16 19 -5 32 0 50 19
15 14 26 32 26 40 0 9 10 15 25 15 14 0 37 7 51 16 13 9 39 20 57 23 l32 7
-27 18 c-26 17 -31 17 -60 3 -18 -8 -53 -18 -78 -22 -41 -6 -49 -4 -73 21 -28
28 -50 92 -62 177 l-6 47 30 0 c28 0 31 3 31 33 0 19 -11 56 -25 83 -21 41
-23 53 -13 72 14 26 36 29 44 5 16 -50 39 -92 70 -128 l34 -40 0 36 c0 19 -7
44 -15 55 -8 10 -15 27 -15 36 0 9 -7 23 -15 32 -14 14 -13 17 14 31 40 20 41
20 41 -19 0 -19 9 -45 21 -60 16 -21 18 -30 9 -41 -9 -11 -4 -21 27 -48 42
-39 58 -38 49 4 -4 21 -1 29 13 34 13 4 18 16 18 50 1 42 -10 60 -20 33 -2 -7
-3 -5 -1 5 1 9 -6 22 -17 27 -14 8 -19 22 -19 50 0 21 -3 45 -6 54 -7 18 -25
22 -21 5 1 -6 -4 -14 -12 -17 -8 -3 -11 0 -7 7 4 6 -2 31 -13 56 l-20 46 34
-7 c30 -5 33 -4 28 15 -7 27 34 84 56 78 9 -3 25 -8 35 -13 18 -7 19 -4 12 51
-9 75 -20 91 -52 70 -22 -14 -23 -13 -33 18 -5 17 -12 47 -16 65 -4 17 -11 32
-16 32 -5 0 -9 6 -9 14 0 25 -67 37 -75 14z m-1290 -588 c-7 -12 -18 -117 -19
-180 -1 -83 32 -201 70 -249 19 -24 34 -48 34 -51 0 -4 9 -10 20 -13 11 -3 20
-10 20 -16 0 -6 -9 -11 -20 -11 -31 0 -24 -29 16 -66 34 -33 27 -36 -24 -11
-21 10 -72 85 -76 112 -1 8 -14 28 -29 46 -15 18 -30 49 -33 68 -4 20 -15 55
-26 79 -21 50 -22 91 -5 177 11 56 50 125 69 125 5 0 6 -4 3 -10z m1010 -2156
c-2 -26 -9 -59 -15 -75 -7 -17 -11 -60 -8 -104 3 -71 2 -75 -17 -69 -38 11
-42 25 -34 114 9 109 17 140 42 167 27 30 35 22 32 -33z"/>
<path d="M6335 7471 c-7 -23 -20 -27 -30 -11 -3 6 -15 10 -26 10 -15 0 -20 -6
-17 -22 2 -17 11 -24 33 -26 33 -3 64 -47 45 -66 -5 -5 -10 -24 -10 -41 0 -23
7 -35 29 -48 33 -20 51 -22 51 -6 0 6 9 24 21 40 11 16 18 37 15 45 -3 9 -3
14 1 12 81 -42 90 -43 196 -32 57 6 58 6 55 36 -2 19 -11 34 -28 42 -38 20
-93 36 -99 30 -10 -10 33 -35 51 -31 20 6 40 -14 30 -28 -20 -28 -119 6 -187
64 -11 10 -38 23 -60 30 -22 7 -45 15 -52 17 -6 3 -14 -4 -18 -15z"/>
<path d="M7201 7038 c-13 -5 -38 -8 -55 -7 -48 1 -135 -9 -189 -22 -28 -6 -72
-9 -103 -5 -49 6 -62 2 -127 -29 -39 -19 -78 -35 -84 -35 -7 0 -13 -5 -13 -11
0 -7 7 -8 18 -4 9 4 78 13 152 21 126 12 215 28 300 54 19 5 49 10 65 10 17 0
35 4 41 9 5 5 20 11 34 13 23 3 23 4 5 9 -12 3 -31 2 -44 -3z"/>
<path d="M7840 6310 c0 -5 5 -10 10 -10 6 0 15 -11 20 -24 5 -13 23 -32 40
-42 17 -10 29 -25 28 -33 -4 -19 -48 -22 -75 -5 -29 18 -49 18 -57 -1 -11 -30
-53 -17 -90 27 l-35 43 -9 -25 c-7 -19 -5 -31 9 -52 11 -14 15 -28 9 -30 -6
-2 -5 -13 3 -28 10 -21 21 -26 61 -28 35 -2 51 1 60 13 9 13 17 14 37 6 15 -5
29 -17 32 -25 4 -9 14 -16 23 -16 24 0 54 29 47 46 -3 10 2 14 18 14 35 0 45
-11 53 -52 6 -31 3 -39 -14 -48 -15 -8 -25 -8 -34 -1 -6 5 -30 12 -51 14 -22
3 -39 10 -37 16 4 18 -25 12 -32 -6 -6 -14 -9 -15 -15 -4 -6 10 -10 10 -16 2
-4 -8 -22 -10 -51 -5 -43 6 -62 -7 -29 -20 17 -6 20 -26 4 -26 -20 0 -128 75
-134 93 -7 20 -42 15 -60 -8 -9 -11 -16 -10 -35 6 -20 15 -22 21 -11 28 8 5
11 16 7 26 -3 10 -1 24 6 32 10 13 8 19 -13 37 -14 11 -29 29 -32 39 -10 27
-31 15 -34 -18 -1 -20 6 -35 22 -50 32 -27 34 -72 3 -77 -33 -5 -32 -23 2 -58
42 -43 28 -55 -17 -14 -45 41 -73 45 -73 9 0 -14 -4 -25 -10 -25 -21 0 -50 41
-50 70 0 23 -7 33 -31 45 l-30 16 5 -43 c2 -24 5 -46 5 -50 1 -5 8 -8 16 -8
17 0 34 -29 28 -47 -3 -7 -16 -13 -30 -13 -20 0 -24 -4 -21 -22 3 -21 9 -23
58 -23 49 0 55 -2 58 -22 2 -13 7 -23 10 -23 4 0 31 -16 61 -35 48 -32 59 -35
127 -35 l74 0 0 29 c0 18 -8 35 -18 43 -10 7 -34 30 -52 51 l-33 38 29 -7 c16
-4 40 -14 53 -23 23 -15 181 -44 190 -35 3 2 -1 10 -7 16 -39 39 13 27 91 -20
41 -25 61 -32 68 -25 11 11 1 23 -51 63 -23 17 -23 19 -7 26 26 10 67 -12 67
-35 0 -13 8 -21 23 -23 17 -2 23 -11 25 -36 4 -37 24 -51 47 -32 12 10 21 10
38 2 33 -15 87 -23 87 -12 0 9 -21 14 -42 11 -4 0 -4 7 -1 16 5 13 2 15 -19
10 -17 -5 -30 -2 -38 8 -7 8 -19 15 -26 15 -9 0 -14 11 -14 29 0 17 -5 33 -12
37 -15 10 16 22 59 23 37 1 54 -16 21 -21 -40 -6 -28 -23 36 -54 44 -22 68
-28 75 -21 15 15 41 1 41 -23 0 -14 7 -20 23 -20 12 0 39 -9 59 -20 28 -15 39
-17 44 -7 4 6 4 9 0 6 -12 -11 -69 50 -62 67 6 16 45 11 57 -8 3 -5 10 -9 15
-8 4 2 13 -6 19 -16 28 -51 83 -50 77 2 -6 46 -25 67 -95 103 -64 33 -65 34
-55 62 13 37 23 36 55 -1 24 -29 65 -40 77 -21 4 5 24 12 46 16 36 6 40 10 40
35 0 19 8 33 26 45 25 16 27 16 47 -3 43 -38 127 -67 127 -43 0 5 12 12 26 15
21 6 25 11 19 29 -4 12 -7 30 -6 39 0 10 -4 20 -10 23 -5 4 -9 1 -9 -4 0 -11
-63 21 -92 46 -15 14 -19 14 -33 -1 -21 -20 -44 -20 -74 0 -16 12 -41 16 -77
15 -31 -1 -54 3 -54 9 0 5 -13 10 -28 10 -15 0 -34 6 -41 13 -10 10 -11 9 -6
-5 10 -26 -50 -60 -95 -55 -19 3 -43 8 -52 12 -13 5 -18 2 -18 -11 0 -9 3 -14
7 -11 9 10 43 -49 43 -74 0 -16 -5 -20 -19 -16 -15 3 -17 0 -13 -16 3 -14 1
-18 -6 -13 -7 4 -12 13 -12 20 0 27 -58 56 -113 56 l-54 0 5 30 c4 28 43 65
56 53 3 -4 6 -17 6 -30 0 -12 5 -23 10 -23 6 0 10 9 10 19 0 54 -46 103 -57
61 -3 -11 -9 -17 -13 -15 -9 5 -71 -7 -102 -20 -11 -4 -18 -3 -18 4 0 6 9 11
20 11 11 0 20 5 20 10 0 6 -6 10 -14 10 -8 0 -16 4 -18 9 -1 6 -19 13 -38 16
-19 3 -39 10 -44 16 -13 12 -46 12 -46 -1z"/>
<path d="M6911 6261 c-17 -11 -2 -41 35 -70 20 -16 25 -26 20 -45 -5 -19 -1
-25 15 -29 19 -5 21 -10 14 -53 -6 -42 -4 -49 16 -65 20 -15 22 -20 11 -41 -6
-12 -13 -38 -14 -57 -3 -36 2 -39 74 -55 18 -4 25 -11 22 -20 -5 -12 -18 -11
-82 6 -148 37 -186 53 -228 91 -23 20 -48 37 -56 37 -12 0 -16 11 -16 42 -1
32 -7 46 -26 63 -14 12 -26 27 -26 34 0 31 -87 -10 -96 -45 l-6 -25 -35 21
c-29 17 -35 18 -39 5 -4 -8 -17 -15 -31 -15 -19 0 -23 -3 -15 -12 5 -7 10 -32
10 -55 l1 -41 -35 34 c-19 19 -34 39 -34 45 0 6 -15 9 -32 7 -30 -3 -35 -8
-49 -53 -10 -30 -33 -66 -58 -92 -22 -23 -41 -44 -41 -48 0 -3 -16 -21 -35
-41 -19 -19 -35 -41 -35 -49 0 -8 -9 -19 -20 -25 -11 -6 -20 -20 -20 -31 0
-13 -8 -23 -20 -26 -25 -7 -23 -36 3 -41 12 -3 20 4 24 18 6 21 6 21 27 2 24
-22 102 -52 133 -52 12 0 26 8 32 17 8 15 14 16 40 6 30 -11 32 -10 46 23 8
19 20 34 28 34 8 0 17 6 20 14 3 8 16 16 29 18 17 2 22 9 21 26 -2 12 3 25 10
28 8 3 11 17 9 39 -5 43 14 47 48 11 15 -17 21 -33 18 -50 -4 -22 -2 -26 18
-26 13 0 24 -5 24 -10 0 -6 13 -4 31 5 24 13 37 14 61 6 26 -9 29 -8 24 5 -9
22 11 44 40 44 17 0 25 7 30 25 6 23 11 25 59 25 33 0 55 5 58 13 3 6 6 3 6
-9 1 -11 6 -25 12 -31 13 -13 3 -34 -14 -32 -27 3 -36 -2 -39 -22 -3 -22 -61
-49 -105 -49 -12 0 -25 -5 -29 -11 -5 -9 1 -10 20 -5 23 6 26 4 26 -21 0 -37
10 -50 43 -58 15 -4 31 -14 36 -23 8 -14 13 -14 34 -3 33 18 63 6 72 -27 l8
-27 6 25 c4 14 19 31 34 38 15 7 27 17 27 21 0 4 11 13 24 19 13 6 29 25 35
44 10 31 17 35 70 47 32 7 68 10 80 6 12 -3 21 -4 21 0 0 10 -34 59 -49 71
-23 18 -3 34 40 32 49 -2 56 5 31 30 -16 16 -27 18 -62 12 -23 -4 -47 -13 -53
-19 -6 -6 -21 -11 -34 -11 -18 0 -22 5 -21 25 2 23 18 37 18 15 0 -5 5 -10 11
-10 5 0 8 4 4 9 -7 12 26 31 54 31 40 0 33 23 -24 76 -46 44 -55 58 -50 75 6
18 4 21 -9 16 -9 -4 -16 -3 -16 2 0 8 -29 21 -54 25 -5 0 -12 10 -17 21 -4 11
-8 14 -8 8 -1 -18 -21 -16 -21 1 0 7 -9 16 -21 19 -12 3 -18 10 -15 16 4 5 2
12 -4 16 -5 3 -10 19 -10 36 0 16 -4 29 -10 29 -5 0 -9 5 -7 12 3 15 -24 21
-42 9z"/>
<path d="M8850 6069 c0 -6 -9 -8 -21 -4 -20 7 -21 5 -15 -30 8 -43 30 -81 52
-89 23 -9 16 -26 -10 -26 -24 0 -41 23 -30 41 3 5 0 9 -5 9 -6 0 -11 -5 -11
-10 0 -6 -12 -9 -27 -8 -22 2 -29 -2 -31 -18 -2 -16 6 -25 31 -38 19 -9 41
-16 49 -16 8 0 29 -13 48 -30 44 -37 63 -39 50 -5 -7 18 -6 26 6 33 13 7 12
12 -3 43 -11 21 -17 56 -17 94 0 35 -2 50 -6 35 l-6 -25 -18 28 c-19 27 -36
36 -36 16z"/>
<path d="M7380 5850 c0 -5 4 -10 9 -10 5 0 12 -9 16 -19 3 -10 17 -22 30 -25
17 -4 25 -13 25 -27 0 -16 -4 -19 -21 -14 -18 6 -20 3 -17 -27 3 -31 5 -33 41
-33 21 0 43 6 49 13 17 20 53 14 80 -13 24 -24 24 -24 41 -4 19 22 13 44 -9
35 -7 -3 -27 8 -44 24 -44 41 -89 67 -132 74 -20 4 -39 13 -42 21 -6 17 -26
20 -26 5z"/>
<path d="M6015 5528 c-5 -18 -8 -41 -7 -50 1 -9 -7 -19 -17 -23 -21 -6 -35
-72 -20 -91 5 -6 6 -14 3 -17 -10 -10 19 -111 38 -129 23 -24 26 -23 20 7 -2
14 -9 25 -14 25 -6 0 -7 8 -3 18 4 9 9 35 11 57 2 22 7 60 12 85 7 45 7 45 46
42 35 -3 37 -2 31 20 -4 13 -13 30 -20 38 -6 8 -15 23 -18 33 -4 10 -17 17
-30 17 -19 0 -26 -7 -32 -32z"/>
<path d="M9371 5453 c-11 -16 -21 -22 -21 -15 0 6 -4 12 -10 12 -15 0 -12 -36
5 -50 8 -7 27 -34 41 -60 29 -54 58 -65 120 -46 45 14 41 37 -10 51 l-39 11
31 25 c37 29 30 44 -35 78 -54 27 -57 27 -82 -6z"/>
<path d="M5203 5423 c-8 -35 -8 -50 0 -55 6 -4 12 -34 13 -67 2 -34 -1 -59 -5
-57 -4 3 -13 1 -21 -4 -11 -7 -11 -11 -1 -24 8 -9 19 -16 25 -16 6 0 19 -9 29
-20 20 -24 27 -25 52 -6 33 24 28 216 -7 216 -18 0 -58 49 -52 64 4 10 1 16
-8 16 -9 0 -19 -18 -25 -47z"/>
<path d="M9753 5369 c-10 -10 -10 -16 -1 -26 9 -11 8 -21 -6 -44 -13 -22 -14
-29 -4 -29 7 0 18 -8 25 -18 6 -11 34 -23 65 -30 29 -7 73 -26 98 -42 25 -17
62 -33 83 -36 20 -4 40 -11 43 -15 3 -5 12 -9 20 -9 29 0 -5 39 -43 49 -19 6
-45 19 -57 29 -12 11 -57 35 -101 55 -44 20 -81 41 -83 46 -5 16 33 13 75 -4
44 -18 62 -20 45 -3 -7 7 -12 21 -12 31 0 15 -5 18 -25 15 -16 -3 -25 -1 -25
7 0 7 -10 15 -22 18 -13 3 -32 8 -43 12 -11 3 -26 0 -32 -6z"/>
<path d="M11038 4983 c-9 -10 -19 -34 -23 -53 -4 -19 -16 -43 -26 -53 -11 -10
-19 -23 -20 -30 -7 -74 -7 -75 18 -86 19 -9 29 -8 48 6 14 10 25 26 25 35 0
10 10 47 21 83 20 61 21 66 5 90 -19 30 -28 31 -48 8z"/>
<path d="M5880 4931 c-15 -28 -12 -83 5 -125 8 -20 12 -36 9 -36 -4 0 1 -9 11
-20 10 -11 29 -20 42 -20 15 0 23 -6 23 -17 0 -9 11 -31 25 -49 14 -18 25 -40
25 -48 0 -9 3 -15 8 -15 4 1 19 1 35 0 26 -1 27 -2 13 -23 -18 -29 -15 -170 4
-193 7 -8 20 -30 29 -47 13 -26 22 -32 46 -32 34 1 35 12 2 58 -24 34 -48 114
-36 121 13 9 36 -5 49 -30 14 -25 50 -41 50 -21 0 7 -5 17 -11 23 -10 10 -17
33 -18 64 -1 18 -21 42 -112 137 -54 56 -69 92 -33 78 11 -4 11 -2 2 13 -6 10
-23 22 -38 28 -20 7 -36 27 -54 65 -14 30 -26 61 -26 69 0 16 -19 39 -32 39
-4 0 -12 -9 -18 -19z"/>
<path d="M10237 4197 c-3 -8 0 -20 6 -26 8 -8 6 -11 -8 -11 -10 0 -38 -12 -62
-26 -35 -20 -52 -24 -82 -19 -30 5 -40 3 -45 -10 -3 -9 -26 -25 -50 -35 -31
-14 -47 -29 -57 -52 -7 -18 -24 -41 -36 -51 -41 -33 -27 -69 31 -80 22 -4 30
0 33 14 6 23 12 23 37 4 12 -9 42 -15 71 -15 47 0 56 4 101 45 27 25 51 45 54
45 4 0 16 18 28 39 16 28 31 41 52 46 24 5 30 12 30 33 -1 43 -43 107 -72 110
-15 2 -28 -3 -31 -11z"/>
<path d="M5640 4070 c0 -5 -7 -10 -15 -10 -10 0 -15 -11 -15 -35 0 -28 5 -37
30 -50 17 -9 30 -22 30 -30 0 -8 14 -28 32 -44 41 -38 33 -47 -18 -19 -44 23
-110 33 -120 17 -3 -6 4 -21 16 -34 13 -14 20 -31 16 -40 -3 -9 -2 -14 3 -11
5 3 11 -10 13 -29 3 -28 1 -35 -13 -35 -27 0 -32 -18 -10 -30 16 -8 22 -6 30
7 9 16 12 16 21 3 14 -21 12 -40 -4 -40 -8 0 -17 -12 -21 -27 -13 -55 -31 -64
-109 -57 -58 5 -76 10 -98 32 -16 14 -28 31 -28 38 0 21 -43 63 -72 70 -36 8
-36 -8 -3 -48 32 -38 32 -61 -2 -88 -23 -18 -29 -19 -38 -7 -6 8 -25 18 -43
22 -25 5 -32 11 -27 24 5 16 2 17 -30 7 -19 -6 -35 -14 -35 -17 0 -3 19 -14
41 -25 27 -11 45 -28 51 -44 7 -23 18 -28 66 -38 45 -8 59 -8 67 3 9 10 15 9
34 -6 12 -10 20 -23 16 -29 -8 -13 -45 -13 -45 0 0 6 -7 10 -15 10 -9 0 -15
-9 -15 -24 0 -32 46 -66 81 -59 20 4 31 -1 42 -18 11 -14 13 -27 7 -34 -6 -7
7 -21 40 -43 47 -31 81 -39 114 -26 29 11 17 22 -41 39 -59 17 -83 31 -83 46
0 12 77 11 85 -1 10 -16 25 -11 23 8 -4 52 2 64 27 60 37 -7 30 9 -10 26 -61
26 -41 80 37 99 14 4 34 4 43 1 14 -6 14 -8 1 -23 -8 -9 -17 -47 -21 -84 -7
-64 -6 -69 11 -65 11 2 19 10 19 18 1 24 15 40 35 40 41 0 66 21 76 63 7 31
16 44 41 56 17 9 33 26 36 38 3 18 -2 22 -29 28 -26 4 -42 0 -73 -20 -25 -17
-50 -25 -67 -23 -38 4 -44 28 -7 28 45 0 74 11 65 24 -16 21 -7 41 18 42 63 2
66 7 58 98 -6 75 -29 157 -49 180 -5 5 -15 4 -24 -4 -12 -10 -15 -10 -15 4 0
9 5 16 10 16 7 0 7 6 0 20 -6 11 -21 20 -33 20 -12 0 -28 9 -35 20 -22 35 -42
25 -42 -22 l-1 -43 -13 30 c-7 17 -11 36 -8 43 2 6 1 12 -2 12 -3 0 -6 -4 -6
-10z"/>
<path d="M8105 3500 c-11 -5 -32 -11 -47 -14 -43 -10 -47 -47 -9 -88 36 -38
24 -48 -26 -22 -31 17 -35 18 -46 3 -7 -9 -21 -19 -33 -23 -16 -5 -23 1 -37
28 -17 38 -60 72 -76 62 -5 -4 -10 -37 -9 -74 0 -65 2 -69 32 -90 37 -25 82
-28 110 -7 11 8 28 15 38 15 22 0 22 8 3 34 -23 31 -18 38 15 21 16 -8 35 -15
43 -15 8 0 17 -7 21 -15 9 -24 34 -6 40 29 3 17 15 39 26 48 18 16 20 16 40
-9 15 -20 37 -30 83 -40 34 -7 72 -13 85 -13 42 0 17 36 -30 42 -30 4 -58 25
-58 43 0 8 -13 20 -30 29 -28 13 -30 13 -30 -3 0 -9 7 -26 15 -37 31 -42 12
-36 -35 11 -31 31 -50 58 -50 72 0 25 -4 26 -35 13z"/>
<path d="M6663 3478 c-25 -28 -35 -56 -23 -63 11 -7 1 -35 -12 -35 -15 0 -58
-48 -58 -65 0 -8 9 -19 21 -26 18 -9 26 -6 53 20 17 17 40 32 51 34 54 10 75
37 30 37 -30 0 -72 37 -57 52 6 6 25 2 53 -11 23 -12 44 -21 46 -21 9 0 1 40
-10 52 -7 7 -16 21 -20 31 -9 24 -50 21 -74 -5z"/>
</g>
</svg>
